<?xml version="1.0" encoding="UTF-8" standalone="no"?>
<!DOCTYPE svg PUBLIC "-//W3C//DTD SVG 1.1//EN" "http://www.w3.org/Graphics/SVG/1.1/DTD/svg11.dtd">
<svg xmlns="http://www.w3.org/2000/svg">
<defs>
  <font id="WorkdaySans" horiz-adv-x="561">
    <font-face font-family="WorkdaySans" units-per-em="560" ascent="560" descent="0"/>
    <missing-glyph horiz-adv-x="0"/>
    <glyph glyph-name="gear" unicode="" horiz-adv-x="560" d=" M182.675803 253.288852L152.965597 252.977716C148.161607 252.927407 144.226417 256.781387 144.176202 261.576378L143.819957 295.594053C143.769697 300.3932710000001 147.624345 304.3246010000001 152.427347 304.3748990000001L181.42958 304.678621C183.561925 313.650825 186.943857 322.389546 191.57827 330.618564L171.056094 350.715363C167.623587 354.076723 167.566162 359.584498 170.921225 363.010576L194.72345 387.316608C198.081472 390.7457070000001 203.586989 390.799929 207.018791 387.43926L227.390215 367.490088C235.554491 372.407818 244.271499 376.063901 253.25825 378.45537L252.958961 407.034403C252.908652 411.838393 256.762631 415.7735830000001 261.557622 415.823798L295.575297 416.180043C300.3745160000001 416.230303 304.305845 412.375655 304.356144 407.572653L304.659726 378.58377C313.50365 376.276862 322.097311 372.745074 330.172717 367.985599L350.6966080000001 388.943906C354.057968 392.376413 359.565743 392.4338380000001 362.99182 389.078775L387.297853 365.27655C390.726951 361.9185280000001 390.781173 356.413011 387.420505 352.9812090000001L366.342946 331.457515C370.859054 323.613898 374.231545 315.287015 376.457864 306.721027L407.015648 307.041039C411.819637 307.0913480000001 415.754828 303.237369 415.805043 298.442378L416.161288 264.424703C416.211547 259.625484 412.356899 255.694155 407.553897 255.6438560000001L376.28814 255.3164300000001C374.074571 247.029018 370.782733 238.966949 366.410308 231.351555L388.92515 209.303392C392.357658 205.942032 392.415083 200.434257 389.060019 197.00818L365.257794 172.702147C361.899773 169.273049 356.394255 169.218827 352.962453 172.579495L330.29686 194.775284C322.810526 190.350117 314.869875 186.977634 306.690564 184.660093L307.022284 152.984352C307.072593 148.180363 303.218613 144.245172 298.423622 144.194957L264.4059470000001 143.838712C259.606729 143.788453 255.675399 147.643101 255.625101 152.446103L255.297673 183.711993C246.885448 185.762932 238.684058 188.914844 230.921925 193.170121L209.284637 171.07485C205.923277 167.642342 200.415502 167.584917 196.989424 170.939981L172.683392 194.742206C169.254293 198.100227 169.200071 203.605745 172.56074 207.037547L193.64436 228.567431C188.822232 236.370793 185.16517 244.694986 182.675803 253.288852M323.490622 280.0093780000001C323.490622 304.033764 304.015009 323.509378 279.990622 323.509378C255.966236 323.509378 236.490622 304.033764 236.490622 280.0093780000001C236.490622 255.984991 255.966236 236.5093780000001 279.990622 236.5093780000001C304.015009 236.5093780000001 323.490622 255.984991 323.490622 280.0093780000001"/>
    <glyph glyph-name="home-icon" unicode="" horiz-adv-x="560" d=" M435.712934 257.585846L406.139658 257.573346L406.139658 170.910846C406.139658 157.173346 394.501727 145.910846 380.277589 145.910846L310.967244 145.910846L310.967244 211.173346C310.967244 238.660846 292.773279 261.173346 270.5189690000001 261.173346C248.264658 261.173346 230.070693 238.660846 230.070693 211.173346L230.070693 145.910846L160.773279 145.910846C146.549141 145.910846 134.91121 157.173346 134.91121 170.910846L134.91121 257.485846L105.337934 257.473346C91.1137962 257.460846 87.7258652 265.398346 97.799141 275.098346L251.212934 422.698346C261.28621 432.398346 277.825003 432.435846 287.975865 422.7983460000001L443.16121 275.1233460000001C453.28621 265.485846 449.950003 257.585846 435.712934 257.585846z"/>
    <glyph glyph-name="search" unicode="" horiz-adv-x="560" d=" M397.008874 199.953024C397.398308 199.563591 397.9285060000001 198.856192 398.179919 198.356695C398.179919 198.356695 407.624781 182.530362 392.289829 167.19541C376.954877 151.860457 361.116184 161.311319 361.116184 161.311319C360.630815 161.565323 359.914409 162.09417 359.532214 162.476365L313.924775 208.083804C274.525106 186.084249 223.8011 191.827797 190.314448 225.3144480000001C149.895184 265.7337120000001 149.895184 331.2662880000001 190.314448 371.6855520000001C230.733712 412.1048160000001 296.266288 412.1048160000001 336.685552 371.6855520000001C371.080079 337.291025 376.206792 284.71181 352.065692 244.896206L397.008874 199.953024L397.008874 199.953024zM309.461941 253.245166C334.455495 278.238721 334.455495 318.761279 309.461941 343.754834C284.468386 368.748389 243.945827 368.748389 218.952273 343.754834C193.958718 318.761279 193.958718 278.238721 218.952273 253.245166C243.945827 228.2516110000001 284.468386 228.2516110000001 309.461941 253.245166z"/>
    <glyph glyph-name="inbox" unicode="" horiz-adv-x="560" d=" M108 168.072441L108 263.15493L203.086261 393L358.22808 393L453.143487 263.15493L453.143487 168.167029M202.760145 263.114142L245.740613 217.686896L315.565809 217.686896L359.063855 263.114142L409.354871 263.114142L346.331434 357.840704L214.919324 357.840704L151.839246 263.114142M221.835362 330.934542L337.424737 330.934542L337.424737 315.1889L221.835362 315.1889M221.835362 301.883541L337.424737 301.883541L337.424737 286.137899L221.835362 286.137899"/>
    <glyph glyph-name="prompt" unicode="" horiz-adv-x="560" d=" M220.347918 388L407.014584 388L407.014584 358L220.347918 358L220.347918 388zM220.347918 205.000046L407.014584 205.000046L407.014584 175.000046L220.347918 175.000046L220.347918 205.000046zM220.347918 298L407.014584 298L407.014584 268L220.347918 268L220.347918 298zM152 388L185 388L185 355L152 355L152 388zM152 205.000046L185 205.000046L185 172.000046L152 172.000046L152 205.000046zM152 298L185 298L185 265L152 265L152 298z"/>
    <glyph glyph-name="notifications" unicode="" horiz-adv-x="560" d=" M165 408L187.377078 408L187.377078 153L165 153M393.273187 249.701598C309.727188 211.969391 260.090314 329.895356 198.528813 249.701598L198.528813 386.4808500000001C260.090314 452.512214 340.311648 336.406212 394.5 385.929735C394.5 327.460193 393.273187 249.701598 393.273187 249.701598z"/>
    <glyph glyph-name="ext-link" unicode="" horiz-adv-x="560" d=" M316.05869 378L377 378L377 317.06631L355.292705 338.77089L349.19858 332.677515L300.445535 283.93056L291.682175 275.546085L274.54547 292.6806450000001L282.930995 301.44291L331.68404 350.189865L337.77818 356.283225L316.05869 378zM182 353.614335L279.50609 353.614335L279.50609 329.240865L206.37653 329.240865L206.37653 207.37347L328.259135 207.37347L328.259135 280.4939100000001L352.635665 280.4939100000001L352.635665 183L182 183L182 353.614335z"/>
    <glyph glyph-name="ra-icon" unicode="" horiz-adv-x="560" d=" M189 280.36374C189 292.855448 198.364711 302.981977 209.916667 302.981977C221.468623 302.981977 230.833333 292.855448 230.833333 280.36374C230.833333 267.872032 221.468623 257.745502 209.916667 257.745502C198.364711 257.745502 189 267.872032 189 280.36374zM258.683333 280.36374C258.683333 292.855448 268.048044 302.981977 279.6 302.981977C291.151956 302.981977 300.516667 292.855448 300.516667 280.36374C300.516667 267.872032 291.151956 257.745502 279.6 257.745502C268.048044 257.745502 258.683333 267.872032 258.683333 280.36374zM350.233333 257.763525C338.65 257.763525 329.316667 267.89217 329.316667 280.36374C329.316667 292.871355 338.65 303 350.233333 303C361.766667 303 371.1 292.853332 371.1 280.36374C371.1 267.874147 361.766667 257.763525 350.233333 257.763525z"/>
    <glyph glyph-name="x-icon" unicode="" horiz-adv-x="560" d=" M219.394827 358L279.993878 297.4009490000001L340.5929290000001 358L357.987756 340.6051730000001L297.388705 280.006122L357.987756 219.407071L340.5929290000001 202.012244L279.993878 262.611295L219.394827 202.012244L202 219.407071L262.599051 280.006122L202 340.6051730000001L219.394827 358z"/>
    <glyph glyph-name="check-icon" unicode="" horiz-adv-x="560" d=" M283.798099 235.319121L268.446922 214.669798L206 261.726929L221.484611 282.275702L263.249326 250.803732L334.231305 345L354.780078 329.5153890000001"/>
    <glyph glyph-name="icon10" unicode="" horiz-adv-x="560" d=" M40 280C40 412.5483470000001 147.451653 520 280 520C412.548347 520 520 412.5483470000001 520 280C520 147.451653 412.548347 40 280 40C147.451653 40 40 147.451653 40 280z"/>
    <glyph glyph-name="icon11" unicode="" horiz-adv-x="560" d=" M40 280C40 412.5483470000001 147.451653 520 280 520C412.548347 520 520 412.5483470000001 520 280C520 147.451653 412.548347 40 280 40C147.451653 40 40 147.451653 40 280z"/>
    <glyph glyph-name="icon12" unicode="" horiz-adv-x="560" d=" M40 280C40 412.5483470000001 147.451653 520 280 520C412.548347 520 520 412.5483470000001 520 280C520 147.451653 412.548347 40 280 40C147.451653 40 40 147.451653 40 280z"/>
    <glyph glyph-name="icon13" unicode="" horiz-adv-x="560" d=" M40 280C40 412.5483470000001 147.451653 520 280 520C412.548347 520 520 412.5483470000001 520 280C520 147.451653 412.548347 40 280 40C147.451653 40 40 147.451653 40 280z"/>
    <glyph glyph-name="icon14" unicode="" horiz-adv-x="560" d=" M40 280C40 412.5483470000001 147.451653 520 280 520C412.548347 520 520 412.5483470000001 520 280C520 147.451653 412.548347 40 280 40C147.451653 40 40 147.451653 40 280z"/>
    <glyph glyph-name="icon15" unicode="" horiz-adv-x="560" d=" M40 280C40 412.5483470000001 147.451653 520 280 520C412.548347 520 520 412.5483470000001 520 280C520 147.451653 412.548347 40 280 40C147.451653 40 40 147.451653 40 280z"/>
    <glyph glyph-name="excel" unicode="" horiz-adv-x="560" d=" M301.250562 371.8837210000001C327.681461 371.8837210000001 354.11236 371.83093 380.543258 371.962907C385.0056180000001 371.77814 389.916854 372.094884 393.798315 369.428953C396.5179780000001 365.522442 396.201124 360.560116 396.385955 356.072907C396.253933 310.250581 396.306742 264.454651 396.333146 218.658721C396.201124 210.977674 397.046067 203.138256 395.435393 195.562791C394.379213 190.072558 387.77809 189.940581 383.368539 189.755814C356.013483 189.676628 328.632022 189.808605 301.250562 189.755814L301.250562 166L284.853371 166C244.612921 173.311512 204.293258 180.068721 164 187.116279L164 371.857326C204.530899 378.9048840000001 245.061798 385.84686 285.566292 393L301.250562 393L301.250562 371.8837210000001zM301.250562 348.127907L322.3741570000001 348.127907L322.3741570000001 329.651163L301.250562 329.651163L301.250562 319.093023L322.3741570000001 319.093023L322.3741570000001 300.616279L301.250562 300.616279L301.250562 290.05814L322.3741570000001 290.05814L322.3741570000001 271.581395L301.250562 271.581395L301.250562 261.023256L322.3741570000001 261.023256L322.3741570000001 242.546512L301.250562 242.546512L301.250562 231.9883720000001L322.3741570000001 231.9883720000001L322.3741570000001 213.511628L301.250562 213.511628L301.250562 197.674419L388.385393 197.674419L388.385393 363.965116L301.250562 363.965116L301.250562 348.127907zM341.935955 212.284244L341.935955 230.760988L378.902247 230.760988L378.902247 212.284244L341.935955 212.284244zM341.935955 241.319128L341.935955 259.795872L378.902247 259.795872L378.902247 241.319128L341.935955 241.319128zM341.935955 270.354012L341.935955 288.830756L378.902247 288.830756L378.902247 270.354012L341.935955 270.354012zM341.935955 299.388895L341.935955 317.86564L378.902247 317.86564L378.902247 299.388895L341.935955 299.388895zM341.935955 328.423779L341.935955 346.900523L378.902247 346.900523L378.902247 328.423779L341.935955 328.423779zM238.060674 289.54343C234.812921 300.127965 230.508989 310.31657 226.574719 320.637151C220.76573 320.320407 214.956742 319.977267 209.147753 319.6341280000001C215.273596 306.119709 221.795506 292.790058 227.736517 279.196453C220.739326 265.998779 214.191011 252.616337 207.405056 239.339477C213.18764 239.101919 218.970225 238.86436 224.752809 238.785174C228.87191 249.290523 233.994382 259.399942 237.585393 270.116453C240.806742 258.6080810000001 246.272472 247.970756 250.761236 236.963895C257.1247190000001 236.515174 263.461798 236.119244 269.825281 235.749709C262.53764 250.5311050000001 255.117978 265.2069190000001 247.856742 279.988314C255.038764 294.373779 262.115169 308.8120350000001 269.165169 323.250291C263.171348 322.959942 257.177528 322.5904070000001 251.210112 322.1680810000001C246.747753 311.319593 241.546067 300.761453 238.060674 289.54343z"/>
    <glyph glyph-name="printer" unicode="" horiz-adv-x="560" d=" M360.85 364.0176L398.875 364.0176C404.17 364.0176 408.475 359.6922 408.49 354.4056L408.49 231.1166810000001C408.49 225.815062 404.185 221.504681 398.89 221.504681L360.865 221.504681L360.865 145.885275L198.625 145.885275L198.625 221.504681L160.6 221.504681C155.29 221.504681 151 225.815062 151 231.1166810000001L151 354.4056C151 359.707219 155.29 364.0176 160.6 364.0176L198.625 364.0176L198.625 414L360.85 414L360.85 364.0176zM215.335 162.616162L344.14 162.616162L344.14 267.447037L215.335 267.447037L215.335 162.616162zM215.335 364.0176L344.14 364.0176L344.14 397.254094L215.335 397.254094L215.335 364.0176zM352.51 309.018938L377.575 309.018938L377.59 334.130288L352.51 334.130288L352.51 309.018938zM307.48 334.130288L307.48 309.018938L332.56 309.018938L332.56 334.130288L307.48 334.130288zM231.010366 225.379519L231.010366 237.094144L330.175366 237.094144L330.175366 225.379519L231.010366 225.379519zM231.010366 195.327L231.010366 207.056644L330.175366 207.056644L330.175366 195.327L231.010366 195.327z"/>
    <glyph glyph-name="tag-icon" unicode="" horiz-adv-x="560" d=" M403.042885 368.532627L416.1528850000001 320.892627L430.807885 267.687627C431.482885 265.257627 431.677885 262.797627 431.482885 260.442627C430.807885 251.892627 424.912885 244.2426270000001 416.122885 241.827627L229.987885 190.602627L182.362885 177.492627C171.157885 174.402627 159.592885 180.987627 156.517885 192.177627L156.307885 192.852627L129.007885 292.152627L128.737885 293.022627C128.092885 295.362627 127.897885 297.717627 128.047885 300.042627C128.602885 308.682627 134.557885 316.452627 143.407885 318.897627L329.557885 370.137627L377.167885 383.232627C388.387885 386.337627 399.952885 379.737627 403.042885 368.532627zM232.282885 267.402627C227.407885 285.072627 209.122885 295.452627 191.497885 290.577627C173.812885 285.732627 163.462885 267.462627 168.307885 249.792627C173.167885 232.137627 191.437885 221.757627 209.092885 226.6176270000001C226.762885 231.507627 237.127885 249.732627 232.282885 267.402627z"/>
    <glyph glyph-name="i-icon" unicode="" horiz-adv-x="560" d=" M463.5 280.25C463.5 178.771 381.229 96.5 279.75 96.5C178.271 96.5 96 178.771 96 280.25C96 381.7290000000001 178.271 464 279.75 464C381.229 464 463.5 381.7290000000001 463.5 280.25zM115.75 280.25C115.75 189.816615 189.322923 116.25 279.75 116.25C370.183385 116.25 443.75 189.816615 443.75 280.25C443.75 370.677077 370.183385 444.25 279.75 444.25C189.322923 444.25 115.75 370.677077 115.75 280.25zM264.75 373.2602500000001C264.75 384.024142 273.475858 392.75 284.23975 392.75C295.003642 392.75 303.7295 384.024142 303.7295 373.2602500000001C303.7295 362.496358 295.003642 353.7705 284.23975 353.7705C273.475858 353.7705 264.75 362.496358 264.75 373.2602500000001zM234.75 176.850375L234.75 192.4385L258.141375 200.2295L258.141375 309.370875L234.75 317.161875L234.75 332.75L258.141375 332.75L297.120875 332.75L297.120875 200.2295L320.5 192.4385L320.5 176.850375L234.75 176.850375z"/>
    <glyph glyph-name="chart-icon" unicode="" horiz-adv-x="560" d=" M228.945 192.340854C228.945 189.3787 226.545 187 223.59 187L173.355 187C170.4 187 168 189.3787 168 192.340854L168 366.659146C168 369.60634 170.4 372 173.355 372L223.575 372C226.53 372 228.93 369.60634 228.93 366.659146L228.945 192.340854L228.945 192.340854zM310.635 192.340854C310.635 189.3787 308.235 187 305.28 187L255.06 187C252.105 187 249.705 189.3787 249.705 192.340854L249.705 323.917354C249.705 326.864548 252.105 329.258208 255.06 329.258208L305.28 329.258208C308.235 329.258208 310.635 326.864548 310.635 323.917354L310.635 192.340854L310.635 192.340854zM393 192.340854C393 189.3787 390.6 187 387.645 187L337.425 187C334.4700000000001 187 332.07 189.3787 332.07 192.340854L332.07 281.160602C332.07 284.107796 334.4700000000001 286.501456 337.425 286.501456L387.645 286.501456C390.6 286.501456 393 284.107796 393 281.160602L393 192.340854L393 192.340854z"/>
    <glyph glyph-name="zoomout" unicode="" horiz-adv-x="560" d=" M396.106602 185.106602L406.713203 174.5L385.5 153.286797L374.893398 163.893398L333.713464 205.073332C314.774036 190.598795 291.119613 182 265.5 182C203.367966 182 153 232.494392 153 294.5C153 356.632034 203.494392 407 265.5 407C327.632034 407 378 356.505608 378 294.5C378 268.851696 369.395427 245.208066 354.928528 226.284675L396.106602 185.106602zM183 294.5C183 249.0140610000001 219.985352 212 265.5 212C310.985939 212 348 248.985352 348 294.5C348 339.9859390000001 311.014648 377 265.5 377C220.014061 377 183 340.014648 183 294.5zM219.000366 283.337845L219.000366 302.837845L312.000366 302.837845L312.000366 283.337845L219.000366 283.337845z"/>
    <glyph glyph-name="zoomin" unicode="" horiz-adv-x="560" d=" M396.106602 185.106602L406.713203 174.5L385.5 153.286797L374.893398 163.893398L333.713464 205.073332C314.774036 190.598795 291.119613 182 265.5 182C203.367966 182 153 232.494392 153 294.5C153 356.632034 203.494392 407 265.5 407C327.632034 407 378 356.505608 378 294.5C378 268.851696 369.395427 245.208066 354.928528 226.284675L396.106602 185.106602zM183 294.5C183 249.0140610000001 219.985352 212 265.5 212C310.985939 212 348 248.985352 348 294.5C348 339.9859390000001 311.014648 377 265.5 377C220.014061 377 183 340.014648 183 294.5zM276.287842 302.837845L312.000366 302.837845L312.000366 283.337845L276.287842 283.337845L276.287842 248.749954L256.787842 248.749954L256.787842 283.337845L219.000366 283.337845L219.000366 302.837845L256.787842 302.837845L256.787842 342.499954L276.287842 342.499954L276.287842 302.837845z"/>
    <glyph glyph-name="pencil" unicode="" horiz-adv-x="560" d=" M206.40621 244.520109L348.714624 386.828523C354.571294 392.6851920000001 364.064774 392.679587 369.923632 386.8207290000001L386.609479 370.134881C392.475006 364.269354 392.471827 354.7804270000001 386.617274 348.925874L244.30886 206.617459L206.40621 244.520109zM232.99902 195.314458L190.384005 181.106339C182.521766 178.485018 178.271881 182.729776 180.894484 190.59586L195.102603 233.210875L232.99902 195.314458z"/>
    <glyph glyph-name="calendar" unicode="" horiz-adv-x="560" d=" M430.288831 437C451.026654 437 467.847778 420.3014570000001 467.847778 399.669816L467.847778 159.597813C467.847778 139.040759 450.988297 122.26763 430.288831 122.26763L130.558946 122.26763C109.821124 122.26763 93 138.966172 93 159.597813L93 399.669816C93 420.226871 109.859481 437 130.558946 437L430.288831 437L430.288831 437zM107.993911 325.545181L107.993911 159.597813C107.993911 147.266541 118.079061 137.254885 130.558946 137.254885L430.288831 137.254885C442.723093 137.254885 452.853866 147.333771 452.853866 159.597813L452.853866 325.117535L107.993911 325.545181L107.993911 325.545181z"/>
    <glyph glyph-name="clock" unicode="" horiz-adv-x="560" d=" M193 280.75C193 328.38456 231.61544 367 279.25 367C326.88456 367 365.5 328.38456 365.5 280.75C365.5 233.11544 326.88456 194.5 279.25 194.5C231.61544 194.5 193 233.11544 193 280.75zM343 280.75C343 315.9581530000001 314.458153 344.5 279.25 344.5C244.041847 344.5 215.5 315.9581530000001 215.5 280.75C215.5 245.541847 244.041847 217 279.25 217C314.458153 217 343 245.541847 343 280.75zM267.250183 280.75L267.250183 318.25L267.250183 325.75L282.250183 325.75L282.250183 318.25L282.250183 280.75L312.250183 280.75L319.750183 280.75L319.750183 265.75L312.250183 265.75L274.750183 265.75L267.250183 265.75L267.250183 277L267.250183 280.75z"/>
    <glyph glyph-name="exclamation " unicode="" horiz-adv-x="560" d=" M194 279.75C194 327.38456 232.61544 366 280.25 366C327.88456 366 366.5 327.38456 366.5 279.75C366.5 232.11544 327.88456 193.5 280.25 193.5C232.61544 193.5 194 232.11544 194 279.75zM344 279.75C344 314.9581530000001 315.458153 343.5 280.25 343.5C245.041847 343.5 216.5 314.9581530000001 216.5 279.75C216.5 244.541847 245.041847 216 280.25 216C315.458153 216 344 244.541847 344 279.75zM292.250046 255.143549L292.250046 232.643549L269.750046 232.643549L269.750046 255.143549L292.250046 255.143549zM290.479416 264.75L272.389487 264.75L268.250183 305.580292L268.250183 324.75L293.935344 324.75L293.935344 305.580292L290.479416 264.75z"/>
    <glyph glyph-name="undo-icon" unicode="" horiz-adv-x="560" d=" M401.957022 313.8632310000001L414 313.8632310000001L414 198.123058L218.621528 198L218.621528 220.483219L391.459482 220.483219L391.459482 291.380011L187.218433 291.380011L220.740535 259.616791L207.151347 246.740618L146 304.683397L207.545871 363L221.135059 350.123827L182.866541 313.8632310000001"/>
    <glyph glyph-name="menu-group" unicode="" horiz-adv-x="560" d=" M388.913043 183.326087L388.913043 162.782064C388.913043 155.218465 382.677337 149.086957 375.329653 149.086957L128.58339 149.086957C121.081491 149.086957 115 155.314492 115 162.782064L115 368.217936C115 375.781535 121.235707 381.913043 128.58339 381.913043L149.23913 381.913043L149.23913 354.5217390000001L142.391304 354.889542L142.665485 176.478261L361.5217390000001 176.279313L361.5217390000001 183.326087L388.913043 183.326087z M156.086957 408.0815C156.086957 416.32076 162.857878 423 171.203878 423L414.883079 423C423.231924 423 430 416.28306 430 408.0815L430 205.092413C430 196.853153 423.229078 190.173913 414.883079 190.173913L171.203878 190.173913C162.855033 190.173913 156.086957 196.890853 156.086957 205.092413L156.086957 408.0815zM186.338806 220.173913L400 220.09259L400.21698 393L186.434937 393L186.338806 220.173913z"/>
    <glyph glyph-name="icon30" unicode="" horiz-adv-x="560" d=" M40 280C40 412.5483470000001 147.451653 520 280 520C412.548347 520 520 412.5483470000001 520 280C520 147.451653 412.548347 40 280 40C147.451653 40 40 147.451653 40 280z"/>
    <glyph glyph-name="icon29" unicode="" horiz-adv-x="560" d=" M40 280C40 412.5483470000001 147.451653 520 280 520C412.548347 520 520 412.5483470000001 520 280C520 147.451653 412.548347 40 280 40C147.451653 40 40 147.451653 40 280z"/>
    <glyph glyph-name="icon31" unicode="" horiz-adv-x="560" d=" M40 280C40 412.5483470000001 147.451653 520 280 520C412.548347 520 520 412.5483470000001 520 280C520 147.451653 412.548347 40 280 40C147.451653 40 40 147.451653 40 280z"/>
    <glyph glyph-name="chev-left" unicode="" horiz-adv-x="560" d=" M322.583431 393L347 368.080386L260.833139 280.138264L346.291132 192.919614L321.8745620000001 168L212 280.138264L322.583431 393z"/>
    <glyph glyph-name="chev-right" unicode="" horiz-adv-x="560" d=" M213 191.919614L299.166861 279.861736L213.708868 367.080386L238.125438 392L348 279.861736L237.416569 167L213 191.919614z"/>
    <glyph glyph-name="chev-down" unicode="" horiz-adv-x="560" d=" M168 322.583431L192.919614 347L280.861736 260.833139L368.080386 346.291132L393 321.874562L280.861736 212L168 322.583431z"/>
    <glyph glyph-name="chev-up" unicode="" horiz-adv-x="560" d=" M392 237.416569L367.080386 213L279.138264 299.166861L191.919614 213.708868L167 238.125438L279.138264 348L392 237.416569z"/>
    <glyph glyph-name="arrow-l" unicode="" horiz-adv-x="560" d=" M202.844378 258L294.054842 169.564845L261.499417 138L115 280.041801L262.444574 423L295 391.435155L203.789535 303L445 303L445 258L202.844378 258z"/>
    <glyph glyph-name="arrow-r" unicode="" horiz-adv-x="560" d=" M357.155622 303L265.945158 391.435155L298.500583 423L445 280.958199L297.555426 138L265 169.564845L356.210465 258L115 258L115 303L357.155622 303L357.155622 303z"/>
    <glyph glyph-name="icon38" unicode="" horiz-adv-x="560" d=" M40 280C40 147.4516600406096 147.4516600406096 40 280 40C412.5483399593905 40 520 147.4516600406096 520 280C520 412.5483399593905 412.5483399593905 520 280 520C147.4516600406096 520 40 412.5483399593905 40 280z"/>
    <glyph glyph-name="icon39" unicode="" horiz-adv-x="560" d=" M40 280C40 147.4516600406096 147.4516600406096 40 280 40C412.5483399593905 40 520 147.4516600406096 520 280C520 412.5483399593905 412.5483399593905 520 280 520C147.4516600406096 520 40 412.5483399593905 40 280z"/>
    <glyph glyph-name="icon40" unicode="" horiz-adv-x="560" d=" M40 280C40 147.4516600406096 147.4516600406096 40 280 40C412.5483399593905 40 520 147.4516600406096 520 280C520 412.5483399593905 412.5483399593905 520 280 520C147.4516600406096 520 40 412.5483399593905 40 280z"/>
    <glyph glyph-name="icon41" unicode="" horiz-adv-x="560" d=" M40 280C40 147.4516600406096 147.4516600406096 40 280 40C412.5483399593905 40 520 147.4516600406096 520 280C520 412.5483399593905 412.5483399593905 520 280 520C147.4516600406096 520 40 412.5483399593905 40 280z"/>
    <glyph glyph-name="icon42" unicode="" horiz-adv-x="560" d=" M40 280C40 147.4516600406096 147.4516600406096 40 280 40C412.5483399593905 40 520 147.4516600406096 520 280C520 412.5483399593905 412.5483399593905 520 280 520C147.4516600406096 520 40 412.5483399593905 40 280z"/>
    <glyph glyph-name="icon43" unicode="" horiz-adv-x="560" d=" M40 280C40 147.4516600406096 147.4516600406096 40 280 40C412.5483399593905 40 520 147.4516600406096 520 280C520 412.5483399593905 412.5483399593905 520 280 520C147.4516600406096 520 40 412.5483399593905 40 280z"/>
    <glyph glyph-name="icon45" unicode="" horiz-adv-x="560" d=" M40 280C40 147.4516600406096 147.4516600406096 40 280 40C412.5483399593905 40 520 147.4516600406096 520 280C520 412.5483399593905 412.5483399593905 520 280 520C147.4516600406096 520 40 412.5483399593905 40 280z"/>
    <glyph glyph-name="icon44" unicode="" horiz-adv-x="560" d=" M40 280C40 147.4516600406096 147.4516600406096 40 280 40C412.5483399593905 40 520 147.4516600406096 520 280C520 412.5483399593905 412.5483399593905 520 280 520C147.4516600406096 520 40 412.5483399593905 40 280z"/>
    <glyph glyph-name="icon46" unicode="" horiz-adv-x="560" d=" M40 280C40 147.4516600406096 147.4516600406096 40 280 40C412.5483399593905 40 520 147.4516600406096 520 280C520 412.5483399593905 412.5483399593905 520 280 520C147.4516600406096 520 40 412.5483399593905 40 280z"/>
    <glyph glyph-name="icon47" unicode="" horiz-adv-x="560" d=" M40 280C40 147.4516600406096 147.4516600406096 40 280 40C412.5483399593905 40 520 147.4516600406096 520 280C520 412.5483399593905 412.5483399593905 520 280 520C147.4516600406096 520 40 412.5483399593905 40 280z"/>
    <glyph glyph-name="caret-bottom" unicode="" horiz-adv-x="560" d=" M336.11 305.635L281.615 226.99L227.045 305.635L336.11 305.635z M226.985 339.925H336.05V321.52H226.985V339.925z"/>
    <glyph glyph-name="caret-down" unicode="" horiz-adv-x="560" d=" M335.065 319L280.57 240.34L226 319L335.065 319z"/>
    <glyph glyph-name="caret-up" unicode="" horiz-adv-x="560" d=" M225 240.34L279.495 319L334.065 240.34L225 240.34z"/>
    <glyph glyph-name="caret-top" unicode="" horiz-adv-x="560" d=" M220.45 254.745L274.945 333.405L329.515 254.745L220.45 254.745z M220.495 238.86H329.575V220.4550000000001H220.495V238.86z"/>
    <glyph glyph-name="filter" unicode="" horiz-adv-x="560" d=" M396.094702 341.932005L302.909634 244.3212030000001L302.909634 176.435501C302.909634 176.435501 296.173573 168.462748 280.5766730000001 168.040169C279.733682 168.017674 279.535516 168 279.3184780000001 168C263.721578 168.462748 256.985516 176.435501 256.985516 176.435501L256.985516 244.3212030000001L163.800448 341.932005C163.800448 341.932005 155.24944 352.878876 163.800448 361.614842C197.161489 395.700695 276.646386 392.946704 276.644813 392.946704L283.250337 392.946704C283.250337 392.946704 362.730516 395.699088 396.094702 361.614842C404.881622 352.6378620000001 396.094702 341.932005 396.094702 341.932005zM373.299561 348.498236C373.299561 359.740687 331.327224 370.5 279.549561 370.5C227.771897 370.5 185.799561 359.740687 185.799561 348.498236C185.799561 337.2590830000001 227.771897 328.147058 279.549561 328.147058C331.327224 328.147058 373.299561 337.2590830000001 373.299561 348.498236z"/>
    <glyph glyph-name="show-col" unicode="" horiz-adv-x="560" d=" M137 168L137 393L422 393L422 168L137 168zM225.666667 184.901444L225.666667 322.419436L152.833333 322.419436L152.833333 184.901444L225.666667 184.901444zM241.5 322.419436L241.5 184.901444L314.333333 184.901444L314.333333 322.419436L241.5 322.419436zM330.166667 322.419436L330.166667 184.901444L406.166667 184.901444L406.166667 322.419436L330.166667 322.419436z"/>
    <glyph glyph-name="hide-col" unicode="" horiz-adv-x="560" d=" M152 183L152 378L407 378L407 183M231.333333 197.647918L231.333333 316.830178L166.166667 316.830178L166.166667 197.647918M359.319988 266.786797L338.106785 288L327.500183 277.393398L348.713387 256.1801950000001L327.500183 234.966991L338.106785 224.36039L359.319988 245.573593L380.533192 224.36039L391.139793 234.966991L369.92659 256.1801950000001L391.139793 277.393398L380.533192 288L359.319988 266.786797zM245.5 316.830178L245.5 197.647918L310.666667 197.647918L310.666667 316.830178L245.5 316.830178z"/>
    <glyph glyph-name="minus-icon" unicode="" horiz-adv-x="560" d=" M217 266.409091L217 293L343.818182 293L343.818182 266.409091L217 266.409091L217 266.409091z"/>
    <glyph glyph-name="plus-icon" unicode="" horiz-adv-x="560" d=" M295.119285 289.915305L343.818182 289.915305L343.818182 263.324396L295.119285 263.324396L295.119285 216.159091L268.528376 216.159091L268.528376 263.324396L217 263.324396L217 289.915305L268.528376 289.915305L268.528376 344L295.119285 344"/>
    <glyph glyph-name="arrow-asc" unicode="" horiz-adv-x="560" d=" M264.115385 338.636635L214.889768 282.984427L196.615385 303.644601L278.8501110000001 396.615385L361.615385 303.04479L343.341001 282.384615L294.115385 338.0368230000001L294.115385 162.384615L264.115385 162.384615L264.115385 338.636635L264.115385 338.636635z"/>
    <glyph glyph-name="arrow-des" unicode="" horiz-adv-x="560" d=" M294.5 220.74798L343.725616 276.400188L362 255.740014L279.765273 162.769231L197 256.339826L215.274384 277L264.5 221.347792L264.5 397L294.5 397L294.5 220.74798L294.5 220.74798z"/>
    <glyph glyph-name="icon59" unicode="" horiz-adv-x="560" d=" M40 280C40 147.4516600406096 147.4516600406096 40 280 40C412.5483399593905 40 520 147.4516600406096 520 280C520 412.5483399593905 412.5483399593905 520 280 520C147.4516600406096 520 40 412.5483399593905 40 280z"/>
    <glyph glyph-name="icon60" unicode="" horiz-adv-x="560" d=" M40 280C40 147.4516600406096 147.4516600406096 40 280 40C412.5483399593905 40 520 147.4516600406096 520 280C520 412.5483399593905 412.5483399593905 520 280 520C147.4516600406096 520 40 412.5483399593905 40 280z"/>
    <glyph glyph-name="icon61" unicode="" horiz-adv-x="560" d=" M40 280C40 147.4516600406096 147.4516600406096 40 280 40C412.5483399593905 40 520 147.4516600406096 520 280C520 412.5483399593905 412.5483399593905 520 280 520C147.4516600406096 520 40 412.5483399593905 40 280z"/>
    <glyph glyph-name="icon62" unicode="" horiz-adv-x="560" d=" M40 280C40 147.4516600406096 147.4516600406096 40 280 40C412.5483399593905 40 520 147.4516600406096 520 280C520 412.5483399593905 412.5483399593905 520 280 520C147.4516600406096 520 40 412.5483399593905 40 280z"/>
    <glyph glyph-name="icon63" unicode="" horiz-adv-x="560" d=" M40 280C40 147.4516600406096 147.4516600406096 40 280 40C412.5483399593905 40 520 147.4516600406096 520 280C520 412.5483399593905 412.5483399593905 520 280 520C147.4516600406096 520 40 412.5483399593905 40 280z"/>
    <glyph glyph-name="as-comment" unicode="" horiz-adv-x="560" d=" M418.56 423C433.6275 423 445.8825 409.735286 445.8825 393.351857L445.8825 213.793714C445.8825 197.394 433.6275 184.129285 418.56 184.129285L280.4925 184.129285C269.52 157.518429 246.465 126.510429 164.1675 139.237714C149.22 141.558429 207.885 140.28 208.7625 187.199143L141.3075 184.129285C126.2175 184.129285 114 197.394 114 213.793714L114 393.351857C114 409.735286 126.2175 423 141.3075 423L418.56 423zM163.5 288.882353L163.5 255.352941L295.5 255.352941L295.5 288.882353L163.5 288.882353zM163.5 355.9411760000001L163.5 322.411765L394.5 322.411765L394.5 355.9411760000001L163.5 355.9411760000001z"/>
    <glyph glyph-name="as-icon" unicode="" horiz-adv-x="560" d=" M418.56 423C433.6275 423 445.8825 409.735286 445.8825 393.351857L445.8825 213.793714C445.8825 197.394 433.6275 184.129286 418.56 184.129286L280.4925 184.129286C269.52 157.518429 246.465 126.510429 164.1675 139.237715C149.22 141.558429 207.885 140.28 208.7625 187.199144L141.3075 184.129286C126.2175 184.129286 114 197.394 114 213.793714L114 393.351857C114 409.735286 126.2175 423 141.3075 423L418.56 423z"/>
    <glyph glyph-name="as-awaiting" unicode="" horiz-adv-x="560" d=" M292.51 422.11925C292.51 423.274649 294.285806 424.220187 296.47075 424.220187L233.03575 424.220187C235.217736 424.220187 236.9965 423.26825 236.9965 422.11925L236.9965 465.79925C236.9965 464.6430425 235.204175 463.6903262 233.03575 463.6903262L296.47075 463.6903262C294.293306 463.6903262 292.51 464.6398574 292.51 465.79925L292.51 422.11925L292.51 422.11925zM417.57762 349.157971C419.487395 351.470726 422.892579 351.794515 425.194262 349.91132L388.023796 380.439406C390.358962 378.532104 390.68934 375.120001 388.821361 372.819619L428.279047 420.833942C426.385204 418.519207 422.978017 418.1844280000001 420.6761190000001 420.053639L457.78462 389.551628C455.468315 391.464301 455.133976 394.867012 457.02868 397.1827620000001L417.56126 349.138107L417.57762 349.157971zM472.62024 384.400393C477.769668 390.6941080000001 476.860572 399.9463570000001 470.604471 405.1123800000001L433.43188 435.666872C427.090845 440.816213 417.83416 439.906682 412.68868 433.617762L373.207453 385.574558L412.412704 334.319094C412.412704 334.319094 427.95139 330.056597 433.12388 336.320529L472.62024 384.400393zM312.6715 465.79925C312.6715 474.7566945 305.428194 482 296.47075 482L233.03575 482C224.076935 482 216.835 474.7703397 216.835 465.79925L216.835 425.698424L312.671501 420.8323450000001L312.6715 465.79925zM287.563475 254.52425L393.97075 254.52425C398.5757500000001 254.52425 402.31075 258.84425 402.3257500000001 264.15425C402.3257500000001 269.47925 398.59075 273.78425 393.97075 273.78425L287.563475 273.78425C284.004466 281.017043 276.561353 285.99425 267.95575 285.99425C265.5462 285.99425 263.227788 285.604043 261.060257 284.883373L215.45575 330.49925C212.18575 333.76925 206.50075 333.37925 202.72075 329.58425C198.95575 325.80425 198.55075 320.11925 201.82075 316.86425L247.327547 271.346107C246.542455 269.09403 246.11575 266.673971 246.11575 264.15425C246.11575 252.092351 255.893851 242.31425 267.95575 242.31425C276.561353 242.31425 284.004466 247.291457 287.563467 254.524248zM264.73075 438.02C165.500462 438.02 85 357.558861 85 258.33425C85 159.069557 165.480545 78.6185 264.73075 78.6185C364.035912 78.6185 444.4915 159.049522 444.4915 258.33425C444.4915 357.583935 364.025952 438.02 264.73075 438.02L264.73075 417.8585C352.892716 417.8585 424.33 346.4473920000001 424.33 258.33425C424.33 170.185789 352.902401 98.78 264.73075 98.78C176.61378 98.78 105.1615 170.206101 105.1615 258.33425C105.1615 346.421766 176.633147 417.8585 264.73075 417.8585L264.73075 438.02z"/>
    <glyph glyph-name="as-applied" unicode="" horiz-adv-x="560" d=" M222 198.655347L222 198.62945L201 198.62945L201 350.2294500000001L201 360.82945L284.0999980000001 360.82945L284.0999980000001 339.82945L222 339.82945L222 219.655347L317.600098 219.655347L317.600098 261.229426L338.600098 261.229426L338.600098 198.629427L317.600098 198.629427L317.600098 198.655347L222 198.655347zM282.125906 252.000704L236.584869 296.495745L251.078457 311.302439L280.183211 283.027674L342.274864 362L358.600098 349.145858L282.125906 252.000704z"/>
    <glyph glyph-name="as-trash" unicode="" horiz-adv-x="560" d=" M211.46 314.67L349.085 314.67L349.085 211.455C349.085 205.59 346.85 199.71 342.38 195.255C337.9100000000001 190.77 332.03 188.55 326.15 188.55L234.395 188.55C228.53 188.55 222.65 190.77 218.18 195.255C213.68 199.71 211.46 205.59 211.46 211.455L211.46 314.67zM360.56 337.605L360.56 326.145L200 326.145L200 337.605C200 340.545 201.11 343.4700000000001 203.345 345.675C205.595 347.94 208.535 349.0800000000001 211.46 349.0800000000001L251.6 349.0800000000001L251.6 360.54C251.6 363.4650000000001 252.725 366.435 254.975 368.655C257.225 370.89 260.165 372 263.09 372L297.5 372C300.425 372 303.365 370.89 305.585 368.7C307.835 366.45 308.96 363.51 308.96 360.555L308.96 349.0950000000001L349.1 349.0950000000001C352.025 349.0950000000001 354.995 347.94 357.215 345.7200000000001C359.45 343.4700000000001 360.56 340.545 360.56 337.605zM263.06 297.465L245.87 297.465L245.87 214.335C245.87 209.565 249.74 205.725 254.48 205.725C259.235 205.725 263.09 209.565 263.09 214.335L263.06 297.465zM314.69 297.465L297.5 297.465L297.5 214.335C297.5 209.565 301.355 205.725 306.08 205.725C310.835 205.725 314.69 209.565 314.69 214.335L314.69 297.465z"/>
    <glyph glyph-name="upload-clip" unicode="" horiz-adv-x="560" d=" M370.440549 377.280582C381.810549 364.905582 387.795549 349.995582 388.230549 335.415582C388.6355490000001 322.275582 384.9455490000001 308.985582 376.740549 298.395582L249.450549 171.210582C241.275549 163.275582 230.205549 159.555582 218.955549 160.380582C207.465549 161.235582 195.780549 166.740582 185.880549 176.625582C176.040549 186.435582 171.030549 197.790582 171.000549 208.815582C170.940549 219.840582 175.800549 230.085582 183.780549 237.915582L293.0105490000001 347.175582C300.270549 354.375582 308.160549 360.180582 317.040549 362.700582C321.465549 363.870582 326.295549 364.170582 330.990549 362.985582C335.640549 361.830582 340.035549 359.205582 343.755549 355.485582C347.535549 351.765582 350.115549 347.385582 351.225549 342.675582C353.040549 335.565582 351.5105490000001 328.560582 348.465549 322.305582C345.420549 316.020582 340.845549 310.185582 335.340549 304.740582L247.395549 216.810582L236.760549 227.385582L324.765549 315.3455820000001C330.975549 321.4805820000001 335.160549 327.825582 336.450549 332.7155820000001C337.095549 335.250582 337.125549 337.185582 336.720549 339.0905820000001C336.255549 340.920582 335.310549 342.795582 333.150549 344.925582C331.065549 347.010582 329.190549 347.985582 327.345549 348.4805820000001C324.600549 349.0955820000001 321.285549 348.7205820000001 317.0705490000001 346.665582C312.9455490000001 344.790582 308.370549 341.3405820000001 303.585549 336.555582L193.965549 226.9805820000001C188.685549 221.550582 185.970549 215.310582 185.970549 208.860582C186.030549 202.290582 188.835549 194.910582 196.515549 187.215582C204.210549 179.520582 212.565549 175.875582 220.065549 175.305582C227.505549 174.810582 234.180549 177.210582 239.340549 182.340582L360.750549 303.690582C369.330549 312.315582 373.560549 323.400582 373.230549 334.9655820000001C372.825549 346.575582 367.890549 358.740582 357.315549 369.315582C346.890549 379.695582 334.740549 384.645582 323.220549 384.960582C311.595549 385.290582 300.480549 381.1055820000001 291.870549 372.540582L191.700549 272.445582L181.065549 283.020582L281.265549 383.085582C292.755549 394.650582 308.0705490000001 400.425582 323.655549 399.9755820000001C339.270549 399.510582 355.155549 392.745582 368.040549 379.770582"/>
    <glyph glyph-name="upload-cloud" unicode="" horiz-adv-x="560" d=" M372.547106 285.229665C380.229318 277.591586 385.00225 266.975912 384.999997 255.310114C385.004504 243.64656 380.2315720000001 233.030886 372.551613 225.3950500000001C364.882922 217.743508 354.223824 213 342.519099 213L327.330448 213L306.084365 213L306.084365 249.265171L325.869843 249.265171C328.358205 249.265171 329.075387 250.807207 327.483428 252.709404L287.720779 300.220937C286.127499 302.124713 283.547744 302.123135 281.955785 300.220937L242.193137 252.709404C240.599857 250.805628 241.323604 249.265171 243.806721 249.265171L263.592199 249.265171L263.592199 213L228.304502 213L227.168733 213L209.102352 213.121168C190.064708 214.364263 175 230.089193 175 249.359413C175 266.908596 187.488947 281.551988 204.097308 284.967134C202.767738 287.704636 202.001545 290.763009 202.001545 294.007623C202.001545 305.502887 211.362621 314.823857 222.907348 314.823857C226.253809 314.823857 229.404214 314.022802 232.20758 312.631612C235.270098 319.643656 239.601343 325.973569 244.948919 331.298235C250.436214 336.757532 256.97139 341.1869000000001 264.238956 344.245273C271.533565 347.317109 279.639437 349 288.002209 349C296.364981 349 304.468599 347.317109 311.7609540000001 344.247517C319.033028 341.1869000000001 325.56595 336.755288 331.053245 331.295991C336.540539 325.829962 340.988966 319.320541 344.062752 312.081868C346.043587 307.405676 347.45203 302.4243190000001 348.202448 297.229797C357.649158 295.966507 366.144887 291.615674 372.547106 285.229665z"/>
    <glyph glyph-name="icon71" unicode="" horiz-adv-x="560" d=" M40 280C40 147.4516600406096 147.4516600406096 40 280 40C412.5483399593905 40 520 147.4516600406096 520 280C520 412.5483399593905 412.5483399593905 520 280 520C147.4516600406096 520 40 412.5483399593905 40 280z"/>
    <glyph glyph-name="icon72" unicode="" horiz-adv-x="560" d=" M40 280C40 147.4516600406096 147.4516600406096 40 280 40C412.5483399593905 40 520 147.4516600406096 520 280C520 412.5483399593905 412.5483399593905 520 280 520C147.4516600406096 520 40 412.5483399593905 40 280z"/>
    <glyph glyph-name="icon73" unicode="" horiz-adv-x="560" d=" M40 280C40 147.4516600406096 147.4516600406096 40 280 40C412.5483399593905 40 520 147.4516600406096 520 280C520 412.5483399593905 412.5483399593905 520 280 520C147.4516600406096 520 40 412.5483399593905 40 280z"/>
    <glyph glyph-name="icon74" unicode="" horiz-adv-x="560" d=" M40 280C40 147.4516600406096 147.4516600406096 40 280 40C412.5483399593905 40 520 147.4516600406096 520 280C520 412.5483399593905 412.5483399593905 520 280 520C147.4516600406096 520 40 412.5483399593905 40 280z"/>
    <glyph glyph-name="icon75" unicode="" horiz-adv-x="560" d=" M40 280C40 147.4516600406096 147.4516600406096 40 280 40C412.5483399593905 40 520 147.4516600406096 520 280C520 412.5483399593905 412.5483399593905 520 280 520C147.4516600406096 520 40 412.5483399593905 40 280z"/>
    <glyph glyph-name="icon76" unicode="" horiz-adv-x="560" d=" M40 280C40 147.4516600406096 147.4516600406096 40 280 40C412.5483399593905 40 520 147.4516600406096 520 280C520 412.5483399593905 412.5483399593905 520 280 520C147.4516600406096 520 40 412.5483399593905 40 280z"/>
    <glyph glyph-name="icon77" unicode="" horiz-adv-x="560" d=" M40 280C40 147.4516600406096 147.4516600406096 40 280 40C412.5483399593905 40 520 147.4516600406096 520 280C520 412.5483399593905 412.5483399593905 520 280 520C147.4516600406096 520 40 412.5483399593905 40 280z"/>
    <glyph glyph-name="icon78" unicode="" horiz-adv-x="560" d=" M40 280C40 147.4516600406096 147.4516600406096 40 280 40C412.5483399593905 40 520 147.4516600406096 520 280C520 412.5483399593905 412.5483399593905 520 280 520C147.4516600406096 520 40 412.5483399593905 40 280z"/>
    <glyph glyph-name="icon79" unicode="" horiz-adv-x="560" d=" M40 280C40 147.4516600406096 147.4516600406096 40 280 40C412.5483399593905 40 520 147.4516600406096 520 280C520 412.5483399593905 412.5483399593905 520 280 520C147.4516600406096 520 40 412.5483399593905 40 280z"/>
    <glyph glyph-name="loc-icon" unicode="" horiz-adv-x="560" d=" M195 323C195 369.944204 233.055796 408 280 408C326.944204 408 365 369.944204 365 323C365 276.055796 280 152.612625 280 152.612625C280 152.612625 195 276.055796 195 323zM280 269C310.927946 269 336 294.072054 336 325C336 355.927946 310.927946 381 280 381C249.072054 381 224 355.927946 224 325C224 294.072054 249.072054 269 280 269z"/>
    <glyph glyph-name="view-team" unicode="" horiz-adv-x="560" d=" M307.028373 290.749853C317.136039 305.609968 334.183231 315.37 353.51 315.37C384.534596 315.37 409.685 290.219596 409.685 259.195C409.685 228.170404 384.534596 203.02 353.51 203.02C332.238854 203.02 313.729033 214.842641 304.193175 232.275285L266.384765 214.072285C267.454928 210.017991 268.025 205.760569 268.025 201.37C268.025 173.957346 245.802654 151.735 218.39 151.735C190.977346 151.735 168.755 173.957346 168.755 201.37C168.755 228.782654 190.977346 251.005 218.39 251.005C234.713368 251.005 249.196343 243.125344 258.242735 230.962221L298.0620610000001 250.133384C297.583671 253.083208 297.335 256.110064 297.335 259.195C297.335 264.137954 297.973419 268.931798 299.172299 273.498573L274.135402 293.25094C261.355094 278.708365 242.616908 269.53 221.735 269.53C183.221423 269.53 152 300.751423 152 339.265C152 377.7785770000001 183.221423 409 221.735 409C260.248577 409 291.4700000000001 377.7785770000001 291.4700000000001 339.265C291.4700000000001 328.335611 288.955702 317.993467 284.473965 308.785428L307.028373 290.749853zM353.51 221.77C374.179257 221.77 390.935 238.525743 390.935 259.195C390.935 279.864257 374.179257 296.62 353.51 296.62C332.840743 296.62 316.085 279.864257 316.085 259.195C316.085 238.525743 332.840743 221.77 353.51 221.77zM218.39 170.485C235.447314 170.485 249.275 184.312686 249.275 201.37C249.275 218.427314 235.447314 232.255 218.39 232.255C201.332686 232.255 187.505 218.427314 187.505 201.37C187.505 184.312686 201.332686 170.485 218.39 170.485zM221.735 288.28C249.893238 288.28 272.7200000000001 311.106762 272.7200000000001 339.265C272.7200000000001 367.423238 249.893238 390.25 221.735 390.25C193.576762 390.25 170.75 367.423238 170.75 339.265C170.75 311.106762 193.576762 288.28 221.735 288.28z"/>
    <glyph glyph-name="mail-icon" unicode="" horiz-adv-x="560" d=" M330.633333 281.84335C327.519999 284.691289 327.491527 289.146032 330.633333 291.847987L394.358953 346.652059C397.472287 349.329528 399.996143 348.209749 399.996143 343.962274L399.996143 225.93111C399.996143 221.768114 397.500759 220.676005 394.358953 223.549989L330.633333 281.84335zM229.354592 291.852235C232.467557 289.174766 232.496025 284.7214410000001 229.354592 281.847279L165.636522 223.550308C162.523557 220.702192 160 221.68374 160 225.93135L160 343.966282C160 348.129411 162.495089 349.358262 165.636522 346.656307L229.354592 291.852235zM285.6874220000001 277.096658C282.544215 274.281852 277.5118550000001 274.224731 274.304864 277.096658L185.187239 356.903342C182.044032 359.7181480000001 182.984697 362 187.12997 362L372.862316 362C377.078463 362 378.012038 359.775269 374.805047 356.903342L285.6874220000001 277.096658zM275.042253 244.449317C277.642093 241.589497 282.214075 241.439768 284.950033 244.449317L305.042253 266.550729C307.642093 269.410549 312.477005 269.74467 315.537305 266.96258L386.954981 202.03742C390.1160510000001 199.16372 389.19136 197 385.114704 197L287.377582 197L272.614704 197L174.877582 197C170.741723 197 169.977005 199.25533 173.037305 202.03742L244.454981 266.96258C247.616051 269.83628 252.214075 269.560278 254.950033 266.550729L275.042253 244.449317z"/>
    <glyph glyph-name="phone-icon" unicode="" horiz-adv-x="560" d=" M387.09513 191.609884L372.54513 176.939884C351.72513 157.814884 285.81513 178.424884 232.02513 231.554884C178.26513 284.669884 156.87513 350.354884 175.70013 371.444884L190.20513 386.129884C192.54513 388.5298840000001 195.78513 389.954884 199.34013 389.999884C202.95513 390.014884 206.18013 388.574884 208.58013 386.249884L245.48013 349.7848840000001C247.83513 347.4148840000001 249.29013 344.189884 249.32013 340.589884C249.36513 337.049884 247.91013 333.794884 245.61513 331.424884L231.72513 317.399884C225.03513 310.589884 232.56513 279.614884 256.34013 256.139884C280.10013 232.649884 311.16513 225.494884 317.90013 232.289884L331.73013 246.299884C334.10013 248.669884 337.32513 250.154884 340.85013 250.169884C344.49513 250.214884 347.72013 248.774884 350.07513 246.449884L387.00513 209.954884C389.37513 207.614884 390.84513 204.389884 390.87513 200.789884C390.87513 197.189884 389.42013 193.964884 387.09513 191.609884z"/>
    <glyph glyph-name="icon84" unicode="" horiz-adv-x="560" d=" M40 280C40 147.4516600406096 147.4516600406096 40 280 40C412.5483399593905 40 520 147.4516600406096 520 280C520 412.5483399593905 412.5483399593905 520 280 520C147.4516600406096 520 40 412.5483399593905 40 280z"/>
    <glyph glyph-name="icon85" unicode="" horiz-adv-x="560" d=" M40 280C40 147.4516600406096 147.4516600406096 40 280 40C412.5483399593905 40 520 147.4516600406096 520 280C520 412.5483399593905 412.5483399593905 520 280 520C147.4516600406096 520 40 412.5483399593905 40 280z"/>
    <glyph glyph-name="icon86" unicode="" horiz-adv-x="560" d=" M40 280C40 147.4516600406096 147.4516600406096 40 280 40C412.5483399593905 40 520 147.4516600406096 520 280C520 412.5483399593905 412.5483399593905 520 280 520C147.4516600406096 520 40 412.5483399593905 40 280z"/>
    <glyph glyph-name="icon87" unicode="" horiz-adv-x="560" d=" M40 280C40 147.4516600406096 147.4516600406096 40 280 40C412.5483399593905 40 520 147.4516600406096 520 280C520 412.5483399593905 412.5483399593905 520 280 520C147.4516600406096 520 40 412.5483399593905 40 280z"/>
    <glyph glyph-name="icon88" unicode="" horiz-adv-x="560" d=" M40 280C40 147.4516600406096 147.4516600406096 40 280 40C412.5483399593905 40 520 147.4516600406096 520 280C520 412.5483399593905 412.5483399593905 520 280 520C147.4516600406096 520 40 412.5483399593905 40 280z"/>
    <glyph glyph-name="icon89" unicode="" horiz-adv-x="560" d=" M40 280C40 147.4516600406096 147.4516600406096 40 280 40C412.5483399593905 40 520 147.4516600406096 520 280C520 412.5483399593905 412.5483399593905 520 280 520C147.4516600406096 520 40 412.5483399593905 40 280z"/>
    <glyph glyph-name="icon91" unicode="" horiz-adv-x="560" d=" M40 280C40 147.4516600406096 147.4516600406096 40 280 40C412.5483399593905 40 520 147.4516600406096 520 280C520 412.5483399593905 412.5483399593905 520 280 520C147.4516600406096 520 40 412.5483399593905 40 280z"/>
    <glyph glyph-name="icon9" unicode="" horiz-adv-x="560" d=" M40 280C40 147.4516600406096 147.4516600406096 40 280 40C412.5483399593905 40 520 147.4516600406096 520 280C520 412.5483399593905 412.5483399593905 520 280 520C147.4516600406096 520 40 412.5483399593905 40 280z"/>
    <glyph glyph-name="icon92" unicode="" horiz-adv-x="560" d=" M40 280C40 147.4516600406096 147.4516600406096 40 280 40C412.5483399593905 40 520 147.4516600406096 520 280C520 412.5483399593905 412.5483399593905 520 280 520C147.4516600406096 520 40 412.5483399593905 40 280z"/>
    <glyph glyph-name="icon93" unicode="" horiz-adv-x="560" d=" M40 280C40 147.4516600406096 147.4516600406096 40 280 40C412.5483399593905 40 520 147.4516600406096 520 280C520 412.5483399593905 412.5483399593905 520 280 520C147.4516600406096 520 40 412.5483399593905 40 280z"/>
    <glyph glyph-name="icon94" unicode="" horiz-adv-x="560" d=" M40 280C40 147.4516600406096 147.4516600406096 40 280 40C412.5483399593905 40 520 147.4516600406096 520 280C520 412.5483399593905 412.5483399593905 520 280 520C147.4516600406096 520 40 412.5483399593905 40 280z"/>
    <glyph glyph-name="icon95" unicode="" horiz-adv-x="560" d=" M40 280C40 147.4516600406096 147.4516600406096 40 280 40C412.5483399593905 40 520 147.4516600406096 520 280C520 412.5483399593905 412.5483399593905 520 280 520C147.4516600406096 520 40 412.5483399593905 40 280z"/>
    <glyph glyph-name="fb-icon" unicode="" horiz-adv-x="560" d=" M318.17 272.83L292.52 272.83L292.52 196.36L261.725 196.36L261.725 272.83L236 272.83L236 302.62L261.71 302.62L261.71 324.5950000000001C261.71 350.11 277.265 364 300.0350000000001 364C310.955 364 320.3 363.2050000000001 323.03 362.8300000000001L323.03 336.175L307.265 336.175C294.905 336.175 292.505 330.31 292.505 321.67L292.505 302.62L322.01 302.62"/>
    <glyph glyph-name="linkedin" unicode="" horiz-adv-x="560" d=" M235.406233 201.498515L235.406233 307.7693030000001L200.086558 307.7693030000001L200.086558 201.498515L235.406233 201.498515L235.406233 201.498515zM217.753018 322.2794370000001C230.061467 322.2794370000001 237.734253 330.440242 237.734253 340.639719C237.506036 351.065375 230.061467 359 217.984292 359C205.896928 359 198 351.065375 198 340.639719C198 330.440242 205.662598 322.2794370000001 217.519706 322.2794370000001L217.753018 322.2794370000001L217.753018 322.2794370000001zM254.953448 201.498515L290.279237 201.498515L290.279237 260.844169C290.279237 264.021891 290.509492 267.196556 291.443756 269.465483C293.990823 275.814813 299.807307 282.385228 309.562575 282.385228C322.345798 282.385228 327.455215 272.637092 327.455215 258.353137L327.455215 201.498515L362.773872 201.498515L362.773872 262.434558C362.773872 295.076756 345.35193 310.26441 322.10943 310.26441C303.056346 310.26441 294.687701 299.617668 290.0408310000001 292.362601L290.279237 292.362601L290.279237 307.7693030000001L254.953448 307.7693030000001C255.422109 297.799062 254.953448 201.498515 254.953448 201.498515L254.953448 201.498515L254.953448 201.498515z"/>
    <glyph glyph-name="gplus" unicode="" horiz-adv-x="560" d=" M276.545 349.68C277.82 348.885 279.245 347.73 280.835 346.2150000000001C282.365 344.64 283.865 342.69 285.32 340.365C286.715 338.175 287.96 335.625 289.055 332.64C289.94 329.685 290.39 326.2050000000001 290.39 322.245C290.27 315 288.665 309.195 285.59 304.8450000000001C284.06 302.715 282.4700000000001 300.78 280.79 298.995C278.915 297.225 276.92 295.395 274.805 293.565C273.59 292.305 272.465 290.88 271.445 289.305C270.23 287.655 269.63 285.75 269.63 283.56C269.63 281.43 270.245 279.69 271.49 278.31C272.54 276.975 273.56 275.82 274.565 274.8450000000001L281.45 269.205C285.725 265.695 289.475 261.855 292.7 257.625C295.745 253.335 297.32 247.725 297.455 240.81C297.455 230.985 293.105 222.27 284.42 214.665C275.42 206.82 262.43 202.755 245.45 202.485C231.23 202.62 220.61 205.65 213.605 211.56C206.54 217.11 203 223.74 203 231.42C203 235.17 204.14 239.37 206.45 243.975C208.67 248.5950000000001 212.72 252.63 218.585 256.125C225.155 259.875 232.04 262.38 239.285 263.64C246.455 264.69 252.41 265.275 257.135 265.4100000000001C255.665 267.3450000000001 254.375 269.4 253.22 271.575C251.9 273.7200000000001 251.225 276.255 251.225 279.255C251.225 281.04 251.48 282.555 251.975 283.725C252.425 285 252.845 286.14 253.22 287.205C250.94 286.965 248.75 286.815 246.71 286.815C235.91 286.965 227.675 290.355 222.02 297.015C216.08 303.225 213.125 310.44 213.125 318.69C213.125 328.65 217.31 337.695 225.725 345.81C231.485 350.55 237.485 353.655 243.695 355.125C249.845 356.385 255.62 357 261.005 357L301.58 357L289.055 349.695L276.545 349.695L276.545 349.68zM284.375 232.86C284.375 238.02 282.695 242.505 279.35 246.315C275.795 249.945 270.245 254.4 262.685 259.695C261.395 259.83 259.865 259.89 258.125 259.89C257.105 260.025 254.45 259.89 250.175 259.515C245.99 258.915 241.685 257.955 237.29 256.635C236.24 256.23 234.785 255.63 232.91 254.835C231.035 253.98 229.13 252.765 227.195 251.175C225.32 249.54 223.745 247.485 222.44 245.04C220.955 242.475 220.22 239.37 220.22 235.74C220.22 228.6 223.43 222.735 229.895 218.115C236.06 213.48 244.43 211.125 255.11 210.975C264.665 211.125 271.985 213.225 276.995 217.32C281.93 221.355 284.375 226.53 284.375 232.86zM256.085 292.365C261.425 292.56 265.88 294.48 269.435 298.11C271.1600000000001 300.69 272.27 303.33 272.75 306.045C273.05 308.76 273.2 311.025 273.2 312.885C273.2 320.88 271.145 328.935 267.05 337.0800000000001C265.13 340.98 262.61 344.16 259.475 346.5900000000001C256.28 348.9 252.605 350.145 248.435 350.265C242.945 350.145 238.385 347.925 234.725 343.635C231.65 339.135 230.18 334.0950000000001 230.33 328.545C230.33 321.2100000000001 232.475 313.5900000000001 236.765 305.64C238.85 301.95 241.505 298.815 244.82 296.2200000000001C248.105 293.64 251.855 292.365 256.085 292.365zM356.555 284.895L356.555 274.56L335.27 274.56L335.27 253.275L324.95 253.275L324.95 274.56L303.665 274.56L303.665 284.895L324.95 284.895L324.95 306.195L335.27 306.195L335.27 284.895L356.555 284.895z"/>
    <glyph glyph-name="twitter" unicode="" horiz-adv-x="560" d=" M340.68 311.235C340.74 309.885 340.77 308.535 340.77 307.185C340.77 265.89 309.3450000000001 218.295 251.895 218.295C234.27 218.295 217.83 223.485 204 232.335C206.46 232.065 208.905 231.9 211.44 231.9C226.08 231.9 239.475 236.895 250.17 245.28C236.52 245.52 224.865 254.565 220.89 266.9700000000001C222.81 266.61 224.535 266.415 226.53 266.415C229.395 266.415 231.735 266.79 234.345 267.495C220.065 270.375 208.44 282.99 208.44 298.14L208.44 298.515C223.44 296.175 218.31 294.765 223.41 294.615C215.07 300.21 210.405 309.75 210.405 320.5950000000001C210.405 326.31 211.935 331.695 214.605 336.3C230.04 317.4 253.05 304.9650000000001 279.015 303.645C278.46 305.94 278.19 308.325 278.19 310.77C278.19 328.02 292.185 342 309.42 342C318.42 342 326.52 338.2200000000001 332.235 332.145C339.3450000000001 333.54 346.05 336.15 352.065 339.7200000000001C349.74 332.43 344.79 326.31 338.325 322.4550000000001C344.655 323.2050000000001 350.655 324.885 356.265 327.36C352.065 321.12 346.74 315.615 340.68 311.235z"/>
    <glyph glyph-name="aim" unicode="" horiz-adv-x="560" d=" M324.897124 305.206562C335.232124 300.271562 344.787124 302.506562 353.547124 306.856562C361.857124 310.981562 366.237124 309.061562 369.162124 300.736562C371.127124 295.171562 373.737124 289.846562 376.002124 284.3865620000001C381.7021240000001 270.586562 380.922124 268.411562 367.572124 261.181562C355.242124 254.506562 341.592124 252.916562 327.162124 251.506562C345.522124 233.056562 362.367124 214.696562 374.052124 192.301562C379.917124 181.066562 379.857124 180.931562 368.622124 176.146562C358.347124 171.766562 347.907124 167.806562 337.722124 163.261562C331.737124 160.591562 328.047124 162.181562 324.7021240000001 167.566562C315.822124 181.876562 304.842124 194.386562 292.197124 205.591562C286.587124 210.556562 282.852124 210.331562 277.302124 205.636562C257.502124 188.881562 235.152124 176.611562 209.862124 170.326562C196.017124 166.891562 195.357124 167.596562 191.562124 181.156562C188.022124 193.801562 184.677124 206.506562 180.732124 219.016562C178.887124 224.806562 180.462124 226.456562 186.222124 226.756562C196.377124 227.266562 206.472124 228.526562 216.267124 231.616562C232.092124 236.596562 241.182124 247.381562 245.697124 263.161562C252.027124 285.346562 259.317124 307.2465620000001 277.377124 323.2515620000001C282.312124 327.616562 279.252124 331.3815620000001 277.707124 335.5065620000001C266.562124 365.0115620000001 285.162124 396.106562 315.552124 398.806562C339.177124 400.906562 359.367124 385.711562 363.417124 362.791562C367.992124 336.916562 354.762124 314.926562 330.987124 308.836562C329.157124 308.3715620000001 327.012124 308.596562 324.897124 305.206562L324.897124 305.206562z"/>
    <glyph glyph-name="yahoo" unicode="" horiz-adv-x="560" d=" M279.5 398C214.055 398 161 344.945 161 279.5C161 214.055 214.055 161 279.5 161C344.945 161 398 214.055 398 279.5C398 344.945 344.945 398 279.5 398L279.5 398zM189.766154 254.585C187.569058 262.515133 186.395 270.870474 186.395 279.5L372.605 279.5C372.605 270.870474 371.430942 262.515133 369.2338460000001 254.585L189.766154 254.585L189.766154 254.585L189.766154 254.585zM193.909698 242.794998C208.153134 209.625713 241.113949 186.395 279.5 186.395C317.886051 186.395 350.846866 209.625713 365.090302 242.794998L193.909684 242.795L193.909698 242.794998L193.909698 242.794998zM239.78 336.635C249.56 336.635 257.48 328.7150000000001 257.48 318.935C257.48 309.155 249.56 301.235 239.78 301.235C230 301.235 222.08 309.155 222.08 318.935C222.08 328.7150000000001 230 336.635 239.78 336.635L239.78 336.635zM319.2200000000001 336.635C329 336.635 336.92 328.7150000000001 336.92 318.935C336.92 309.155 329 301.235 319.2200000000001 301.235C309.44 301.235 301.52 309.155 301.52 318.935C301.52 328.7150000000001 309.44 336.635 319.2200000000001 336.635L319.2200000000001 336.635z"/>
    <glyph glyph-name="skype" unicode="" horiz-adv-x="560" d=" M396.685 226.635C396.685 190.935 367.75 162 332.05 162C320.995 162 310.6 164.775 301.495 169.665C294.88 168.45 288.055 167.805 281.08 167.805C219.52 167.805 169.63 217.695 169.63 279.255C169.63 286.92 170.395 294.42 171.88 301.665C166.24 311.265 163 322.425 163 334.35C163 370.065 191.935 399 227.635 399C240.28 399 252.055 395.355 262 389.055C268.21 390.12 274.57 390.69 281.065 390.69C342.625 390.69 392.515 340.8 392.515 279.255C392.515 271.0350000000001 391.63 263.055 389.95 255.33C394.255 246.69 396.67 236.94 396.685 226.635zM346.045 250.86C346.045 258.54 344.515 265.14 341.515 270.495C338.515 275.82 334.3 280.275 328.96 283.755C323.71 287.1600000000001 317.305 290.07 309.88 292.455C302.545 294.795 294.25 296.9700000000001 285.235 298.905C278.11 300.555 272.905 301.815 269.815 302.685C266.8 303.525 263.77 304.695 260.8450000000001 306.165C258.025 307.5900000000001 255.79 309.27 254.2 311.2200000000001C252.7 313.035 251.965 315.165 251.965 317.7C251.965 321.8400000000001 254.23 325.3350000000001 258.88 328.38C263.695 331.545 270.205 333.15 278.185 333.15C286.795 333.15 293.065 331.725 296.8 328.86C300.655 325.92 304.03 321.765 306.805 316.485C309.2200000000001 312.36 311.38 309.48 313.465 307.62C315.7 305.655 318.94 304.635 323.065 304.635C327.61 304.635 331.45 306.255 334.51 309.42C337.555 312.57 339.085 316.185 339.085 320.175C339.085 324.315 337.915 328.605 335.605 332.895C333.31 337.155 329.665 341.25 324.76 345.075C319.885 348.885 313.705 351.975 306.355 354.255C299.0350000000001 356.52 290.29 357.675 280.3450000000001 357.675C267.895 357.675 256.9 355.935 247.645 352.515C238.27 349.065 230.98 343.995 226.015 337.485C220.99 330.9600000000001 218.44 323.355 218.44 314.94C218.44 306.105 220.87 298.605 225.655 292.605C230.365 286.71 236.8 282 244.795 278.5950000000001C252.61 275.28 262.435 272.34 274 269.865C282.505 268.08 289.39 266.37 294.46 264.795C299.305 263.265 303.31 261.075 306.325 258.255C309.2200000000001 255.525 310.63 252.075 310.63 247.68C310.63 242.115 307.93 237.555 302.38 233.775C296.695 229.89 289.135 227.925 279.925 227.925C273.235 227.925 267.775 228.9 263.74 230.805C259.735 232.71 256.585 235.14 254.395 238.05C252.13 241.05 249.985 244.86 248.005 249.39C246.22 253.545 244.03 256.755 241.465 258.945C238.78 261.21 235.465 262.35 231.64 262.35C226.975 262.35 223.06 260.895 220.015 258.015C216.94 255.12 215.38 251.565 215.38 247.5C215.38 240.945 217.78 234.165 222.505 227.355C227.2 220.575 233.365 215.1 240.865 211.065C251.35 205.515 264.76 202.695 280.78 202.695C294.115 202.695 305.83 204.75 315.5950000000001 208.815C325.48 212.91 333.1 218.685 338.245 225.99C343.405 233.31 346.045 241.68 346.045 250.86z"/>
    <glyph glyph-name="lync" unicode="" horiz-adv-x="560" d=" M162 365.4L289.4700000000001 387L289.4700000000001 360.255L289.4700000000001 198.87L289.4700000000001 172.155L162 193.725L162 365.4zM346.935 327.6C370.005 329.745 391.53 315.555 397.44 292.53C403.635 268.365 390.93 245.13 366.57 235.935C368.28 233.5350000000001 369.96 231.21 371.61 228.87C375.3 223.59 374.43 217.08 369.585 213.495C364.65 209.865 358.0950000000001 210.705 354.18 215.67C344.28 228.21 334.455 240.81 324.615 253.38C324.255 253.8450000000001 323.94 254.34 323.385 255.135C324.87 255.27 326.04 255.45 327.225 255.45C335.01 255.48 342.81 255.525 350.5950000000001 255.45C361.59 255.33 369.78 260.07 374.52 269.9100000000001C379.35 279.93 377.415 289.4700000000001 370.74 298.02C363.405 307.425 355.755 316.5900000000001 348.255 325.875C347.85 326.3400000000001 347.505 326.8350000000001 346.935 327.6zM327.495 235.83C327.87 235.365 328.215 234.885 328.7850000000001 234.105C319.125 233.2200000000001 309.81 235.32 301.725 239.61L301.725 268.995C302.67 267.195 303.675 265.4100000000001 305.01 263.685C312.36 254.28 319.995 245.115 327.495 235.83zM352.35 306.57C350.88 306.45 349.695 306.255 348.525 306.255C340.74 306.225 332.94 306.165 325.155 306.255C314.49 306.375 306.525 301.8 301.725 292.545L301.725 322.245C304.08 323.55 306.525 324.78 309.165 325.785C307.44 328.185 305.76 330.495 304.125 332.85C300.42 338.115 301.29 344.64 306.165 348.2100000000001C311.085 351.8400000000001 317.655 350.985 321.57 346.035C331.4700000000001 333.495 341.28 320.91 351.135 308.325C351.495 307.86 351.81 307.365 352.35 306.57zM199.965 329.535L199.965 236.1L253.8 233.5950000000001L253.755 251.55L218.25 252.27L217.845 329.535L199.965 329.535z"/>
    <glyph glyph-name="msn" unicode="" horiz-adv-x="560" d=" M354.0807030000001 345.755C354.0807030000001 372.952263 332.032965 395 304.835703 395C277.63844 395 255.590703 372.952263 255.590703 345.755C255.590703 328.305565 264.666324 312.975855 278.354748 304.2286890000001C265.101795 300.717586 249.424197 293.207908 235.340703 277.625C202.895703 241.715 215.315703 185.795 215.315703 185.795C237.695703 171.44 273.950703 167.165 296.255703 166.01C293.000703 165.77 297.185703 165.485 305.480703 165.665C313.775703 165.485 317.960703 165.77 314.720703 165.77C337.025703 167.165 373.280703 171.44 395.660703 185.795C395.675703 185.795 408.095703 241.73 375.650703 277.625C361.235942 293.574443 345.146899 301.070704 331.699545 304.475862C345.174064 313.262812 354.0807030000001 328.468778 354.0807030000001 345.755zM233.619229 316.127994C241.879114 321.502513 247.340703 330.815945 247.340703 341.405C247.340703 358.048101 233.848804 371.54 217.205703 371.54C200.562602 371.54 187.070703 358.048101 187.070703 341.405C187.070703 330.73134 192.619915 321.353768 200.990698 315.999925C192.883924 313.849056 183.295953 309.253269 174.680703 299.7200000000001C154.835703 277.76 162.425703 243.545 162.425703 243.545C173.600703 236.375 190.235703 233.405 203.465703 232.145C206.105703 249.62 212.585703 268.94 227.135703 285.0350000000001C235.715703 294.53 244.820703 301.1600000000001 253.760703 306.065C246.87864 311.57483 239.792792 314.555135 233.619229 316.127994L233.619229 316.127994z"/>
    <glyph glyph-name="icon105" unicode="" horiz-adv-x="560" d=" M40 280C40 147.4516600406096 147.4516600406096 40 280 40C412.5483399593905 40 520 147.4516600406096 520 280C520 412.5483399593905 412.5483399593905 520 280 520C147.4516600406096 520 40 412.5483399593905 40 280z"/>
    <glyph glyph-name="icon106" unicode="" horiz-adv-x="560" d=" M40 280C40 147.4516600406096 147.4516600406096 40 280 40C412.5483399593905 40 520 147.4516600406096 520 280C520 412.5483399593905 412.5483399593905 520 280 520C147.4516600406096 520 40 412.5483399593905 40 280z"/>
    <glyph glyph-name="icon107" unicode="" horiz-adv-x="560" d=" M40 280C40 147.4516600406096 147.4516600406096 40 280 40C412.5483399593905 40 520 147.4516600406096 520 280C520 412.5483399593905 412.5483399593905 520 280 520C147.4516600406096 520 40 412.5483399593905 40 280z"/>
    <glyph glyph-name="icon108" unicode="" horiz-adv-x="560" d=" M40 280C40 147.4516600406096 147.4516600406096 40 280 40C412.5483399593905 40 520 147.4516600406096 520 280C520 412.5483399593905 412.5483399593905 520 280 520C147.4516600406096 520 40 412.5483399593905 40 280z"/>
    <glyph glyph-name="icon109" unicode="" horiz-adv-x="560" d=" M40 280C40 147.4516600406096 147.4516600406096 40 280 40C412.5483399593905 40 520 147.4516600406096 520 280C520 412.5483399593905 412.5483399593905 520 280 520C147.4516600406096 520 40 412.5483399593905 40 280z"/>
    <glyph glyph-name="icon110" unicode="" horiz-adv-x="560" d=" M40 280C40 147.4516600406096 147.4516600406096 40 280 40C412.5483399593905 40 520 147.4516600406096 520 280C520 412.5483399593905 412.5483399593905 520 280 520C147.4516600406096 520 40 412.5483399593905 40 280z"/>
    <glyph glyph-name="icon111" unicode="" horiz-adv-x="560" d=" M40 280C40 147.4516600406096 147.4516600406096 40 280 40C412.5483399593905 40 520 147.4516600406096 520 280C520 412.5483399593905 412.5483399593905 520 280 520C147.4516600406096 520 40 412.5483399593905 40 280z"/>
    <glyph glyph-name="shrink" unicode="" horiz-adv-x="560" d=" M290.311352 393.073463L323.906711 359.04048L374.299749 410L408 375.8920540000001L357.651915 324.9475260000001L391.322197 290.944528L290.311352 290.944528M268.658679 166.926537L235.108274 200.929535L184.715235 150L151 184.107946L201.363069 235.037481L167.677803 269.025487L268.658679 269.025487"/>
    <glyph glyph-name="fullscreen" unicode="" horiz-adv-x="560" d=" M397.984971 291.302509L362.561676 326.893389L313.942941 278.256528L278.30924 313.862438L326.897918 362.46924L291.309304 398L398 398M162 268.697491L197.468382 233.1517L246.613131 282.28455L282.246832 246.64858L233.102082 197.51573L268.690696 162L162.015029 162"/>
    <glyph glyph-name="list-detail" unicode="" horiz-adv-x="560" d=" M247.807785 402L413 402L413 158L247.807785 158L247.807785 402zM270.333996 180.523077L390.473789 180.523077L390.473789 379.476923L270.333996 379.476923L270.333996 180.523077zM147 402L213.076887 402L213.076887 371.9692310000001L147 371.9692310000001L147 402zM147 330.676923L213.076887 330.676923L213.076887 300.646154L147 300.646154L147 330.676923zM147 259.353846L213.076887 259.353846L213.076887 229.323077L147 229.323077L147 259.353846zM147 188.030769L213.076887 188.030769L213.076887 158L147 158L147 188.030769z"/>
    <glyph glyph-name="grid-view" unicode="" horiz-adv-x="560" d=" M154 402L407 402L407 371.9692310000001L154 371.9692310000001M154 330.676923L407 330.676923L407 300.646154L154 300.646154M154 259.353846L407 259.353846L407 229.323077L154 229.323077M154 188.030769L407 188.030769L407 158L154 158"/>
    <glyph glyph-name="list-view" unicode="" horiz-adv-x="560" d=" M254.162382 402L400 402L400 371.9692310000001L254.162382 371.9692310000001M254.162382 330.676923L400 330.676923L400 300.646154L254.162382 300.646154M254.162382 259.353846L400 259.353846L400 229.323077L254.162382 229.323077M254.162382 188.030769L400 188.030769L400 158L254.162382 158M160 402L209.165255 402L209.165255 371.9692310000001L160 371.9692310000001M160 330.676923L209.165255 330.676923L209.165255 300.646154L160 300.646154M160 259.353846L209.165255 259.353846L209.165255 229.323077L160 229.323077M160 188.030769L209.165255 188.030769L209.165255 158L160 158"/>
    <glyph glyph-name="nbox" unicode="" horiz-adv-x="560" d=" M145 403L220 403L220 338.162779L145 338.162779L145 403zM340 403L415 403L415 338.162779L340 338.162779L340 403zM243.483671 403L318.483671 403L318.483671 338.162779L243.483671 338.162779L243.483671 403zM145 312.918611L220 312.918611L220 248.081389L145 248.081389L145 312.918611zM340 312.918611L415 312.918611L415 248.081389L340 248.081389L340 312.918611zM243.483671 312.918611L318.483671 312.918611L318.483671 248.081389L243.483671 248.081389L243.483671 312.918611zM145 222.837221L220 222.837221L220 158L145 158L145 222.837221zM340 222.837221L415 222.837221L415 158L340 158L340 222.837221zM243.483671 222.837221L318.483671 222.837221L318.483671 158L243.483671 158L243.483671 222.837221z"/>
    <glyph glyph-name="icon118" unicode="" horiz-adv-x="560" d=" M40 280C40 147.4516600406096 147.4516600406096 40 280 40C412.5483399593905 40 520 147.4516600406096 520 280C520 412.5483399593905 412.5483399593905 520 280 520C147.4516600406096 520 40 412.5483399593905 40 280z"/>
    <glyph glyph-name="icon119" unicode="" horiz-adv-x="560" d=" M40 280C40 147.4516600406096 147.4516600406096 40 280 40C412.5483399593905 40 520 147.4516600406096 520 280C520 412.5483399593905 412.5483399593905 520 280 520C147.4516600406096 520 40 412.5483399593905 40 280z"/>
    <glyph glyph-name="icon121" unicode="" horiz-adv-x="560" d=" M40 280C40 147.4516600406096 147.4516600406096 40 280 40C412.5483399593905 40 520 147.4516600406096 520 280C520 412.5483399593905 412.5483399593905 520 280 520C147.4516600406096 520 40 412.5483399593905 40 280z"/>
    <glyph glyph-name="icon120" unicode="" horiz-adv-x="560" d=" M40 280C40 147.4516600406096 147.4516600406096 40 280 40C412.5483399593905 40 520 147.4516600406096 520 280C520 412.5483399593905 412.5483399593905 520 280 520C147.4516600406096 520 40 412.5483399593905 40 280z"/>
    <glyph glyph-name="icon122" unicode="" horiz-adv-x="560" d=" M40 280C40 147.4516600406096 147.4516600406096 40 280 40C412.5483399593905 40 520 147.4516600406096 520 280C520 412.5483399593905 412.5483399593905 520 280 520C147.4516600406096 520 40 412.5483399593905 40 280z"/>
    <glyph glyph-name="icon123" unicode="" horiz-adv-x="560" d=" M40 280C40 147.4516600406096 147.4516600406096 40 280 40C412.5483399593905 40 520 147.4516600406096 520 280C520 412.5483399593905 412.5483399593905 520 280 520C147.4516600406096 520 40 412.5483399593905 40 280z"/>
    <glyph glyph-name="icon124" unicode="" horiz-adv-x="560" d=" M40 280C40 147.4516600406096 147.4516600406096 40 280 40C412.5483399593905 40 520 147.4516600406096 520 280C520 412.5483399593905 412.5483399593905 520 280 520C147.4516600406096 520 40 412.5483399593905 40 280z"/>
    <glyph glyph-name="icon125" unicode="" horiz-adv-x="560" d=" M40 280C40 147.4516600406096 147.4516600406096 40 280 40C412.5483399593905 40 520 147.4516600406096 520 280C520 412.5483399593905 412.5483399593905 520 280 520C147.4516600406096 520 40 412.5483399593905 40 280z"/>
    <glyph glyph-name="icon127" unicode="" horiz-adv-x="560" d=" M40 280C40 147.4516600406096 147.4516600406096 40 280 40C412.5483399593905 40 520 147.4516600406096 520 280C520 412.5483399593905 412.5483399593905 520 280 520C147.4516600406096 520 40 412.5483399593905 40 280z"/>
    <glyph glyph-name="icon128" unicode="" horiz-adv-x="560" d=" M40 280C40 147.4516600406096 147.4516600406096 40 280 40C412.5483399593905 40 520 147.4516600406096 520 280C520 412.5483399593905 412.5483399593905 520 280 520C147.4516600406096 520 40 412.5483399593905 40 280z"/>
    <glyph glyph-name="icon126" unicode="" horiz-adv-x="560" d=" M40 280C40 147.4516600406096 147.4516600406096 40 280 40C412.5483399593905 40 520 147.4516600406096 520 280C520 412.5483399593905 412.5483399593905 520 280 520C147.4516600406096 520 40 412.5483399593905 40 280z"/>
    <glyph glyph-name="icon129" unicode="" horiz-adv-x="561" d=" M41 280C41 412.5483470000001 148.451653 520 281 520C413.548347 520 521 412.5483470000001 521 280C521 147.451653 413.548347 40 281 40C148.451653 40 41 147.451653 41 280z"/>
    <glyph glyph-name="icon130" unicode="" horiz-adv-x="561" d=" M41 280C41 412.5483470000001 148.451653 520 281 520C413.548347 520 521 412.5483470000001 521 280C521 147.451653 413.548347 40 281 40C148.451653 40 41 147.451653 41 280z"/>
    <glyph glyph-name="icon131" unicode="" horiz-adv-x="560" d=" M40 280C40 147.4516600406096 147.4516600406096 40 280 40C412.5483399593905 40 520 147.4516600406096 520 280C520 412.5483399593905 412.5483399593905 520 280 520C147.4516600406096 520 40 412.5483399593905 40 280z"/>
    <glyph glyph-name="icon132" unicode="" horiz-adv-x="561" d=" M41 280C41 412.5483470000001 148.451653 520 281 520C413.548347 520 521 412.5483470000001 521 280C521 147.451653 413.548347 40 281 40C148.451653 40 41 147.451653 41 280z"/>
    <glyph glyph-name="icon133" unicode="" horiz-adv-x="560" d=" M40 280C40 147.4516600406096 147.4516600406096 40 280 40C412.5483399593905 40 520 147.4516600406096 520 280C520 412.5483399593905 412.5483399593905 520 280 520C147.4516600406096 520 40 412.5483399593905 40 280z"/>
    <glyph glyph-name="icon134" unicode="" horiz-adv-x="560" d=" M40 280C40 147.4516600406096 147.4516600406096 40 280 40C412.5483399593905 40 520 147.4516600406096 520 280C520 412.5483399593905 412.5483399593905 520 280 520C147.4516600406096 520 40 412.5483399593905 40 280z"/>
    <glyph glyph-name="icon135" unicode="" horiz-adv-x="560" d=" M40 280C40 147.4516600406096 147.4516600406096 40 280 40C412.5483399593905 40 520 147.4516600406096 520 280C520 412.5483399593905 412.5483399593905 520 280 520C147.4516600406096 520 40 412.5483399593905 40 280z"/>
    <glyph glyph-name="icon136" unicode="" horiz-adv-x="561" d=" M41 280C41 412.5483470000001 148.451653 520 281 520C413.548347 520 521 412.5483470000001 521 280C521 147.451653 413.548347 40 281 40C148.451653 40 41 147.451653 41 280z"/>
    <glyph glyph-name="icon137" unicode="" horiz-adv-x="561" d=" M41 280C41 412.5483470000001 148.451653 520 281 520C413.548347 520 521 412.5483470000001 521 280C521 147.451653 413.548347 40 281 40C148.451653 40 41 147.451653 41 280z"/>
    <glyph glyph-name="icon138" unicode="" horiz-adv-x="560" d=" M40 280C40 147.4516600406096 147.4516600406096 40 280 40C412.5483399593905 40 520 147.4516600406096 520 280C520 412.5483399593905 412.5483399593905 520 280 520C147.4516600406096 520 40 412.5483399593905 40 280z"/>
    <glyph glyph-name="icon139" unicode="" horiz-adv-x="560" d=" M40 280C40 147.4516600406096 147.4516600406096 40 280 40C412.5483399593905 40 520 147.4516600406096 520 280C520 412.5483399593905 412.5483399593905 520 280 520C147.4516600406096 520 40 412.5483399593905 40 280z"/>
    <glyph glyph-name="icon140" unicode="" horiz-adv-x="560" d=" M40 280C40 147.4516600406096 147.4516600406096 40 280 40C412.5483399593905 40 520 147.4516600406096 520 280C520 412.5483399593905 412.5483399593905 520 280 520C147.4516600406096 520 40 412.5483399593905 40 280z"/>
    <glyph glyph-name="icon141" unicode="" horiz-adv-x="560" d=" M40 280C40 147.4516600406096 147.4516600406096 40 280 40C412.5483399593905 40 520 147.4516600406096 520 280C520 412.5483399593905 412.5483399593905 520 280 520C147.4516600406096 520 40 412.5483399593905 40 280z"/>
    <glyph glyph-name="icon142" unicode="" horiz-adv-x="560" d=" M40 280C40 147.4516600406096 147.4516600406096 40 280 40C412.5483399593905 40 520 147.4516600406096 520 280C520 412.5483399593905 412.5483399593905 520 280 520C147.4516600406096 520 40 412.5483399593905 40 280z"/>
    <glyph glyph-name="popduck-fill" unicode="" horiz-adv-x="560" d=" M323.036079 433.04013C289.108477 420.6914930000001 271.611187 383.173452 283.9598240000001 349.24585L317.499687 257.0958330000001C324.605156 237.573719 339.877019 230.454673 359.396314 237.559115L367.075482 240.354104L381.049399 201.961082C385.68001 189.238584 399.744759 182.673062 412.472895 187.305725C425.192575 191.93531 431.752199 206.00749 427.121589 218.729988L413.148698 257.12019L420.833504 259.917231C440.34998 267.020647 447.474664 282.294563 440.370222 301.813858L406.829332 393.966694C394.483514 427.895322 356.960862 445.387741 323.036079 433.04013zM316.381591 378.503164C312.133241 376.9568910000001 309.951138 372.277358 311.496385 368.031827L345.036249 275.88181C346.581496 271.636278 351.263081 269.448538 355.511432 270.9948110000001C359.759782 272.541084 361.939832 277.226256 360.394585 281.471787L326.854722 373.621804C325.306656 377.866309 320.629941 380.049438 316.381591 378.503164zM411.767098 213.138218C413.307214 208.906782 411.11538 204.201359 406.886763 202.662268C402.655327 201.122151 397.946059 203.315779 396.405942 207.547214L382.432025 245.9402360000001L397.790361 251.530213L411.764278 213.137192L411.767098 213.138218zM362.378174 394.5029140000001C358.138281 392.95972 355.95054 388.278134 357.495787 384.032603L391.035651 291.882586C392.580898 287.637054 397.268121 285.451366 401.508014 286.994561C405.756365 288.540834 407.942053 293.228058 406.3968060000001 297.473589L372.856943 389.623606C371.308876 393.868111 366.626524 396.049188 362.378174 394.5029140000001z M332.83869 190.884443C332.22369 191.820443 331.17969 192.390443 330.06069 192.390443L323.52369 192.390443C328.68369 204.069443 327.34269 224.079443 327.13569 226.7284430000001C327.04569 227.898443 326.34069 228.936443 325.27569 229.446443C324.22269 229.950443 322.96269 229.860443 321.98769 229.206443C321.71769 229.011443 292.16469 209.169443 258.5556900000001 212.403443C233.01969 214.824443 228.13869 229.3534430000001 227.19969 235.185443C258.41769 243.816443 279.96069 271.941443 279.96069 304.575443C279.96069 324.9994430000001 271.38069 343.425443 257.68269 356.553443C259.09569 357.666443 262.30269 359.061443 268.79169 359.358443C270.61869 359.436443 272.02869 360.987443 271.94469 362.808443C271.86669 364.6294430000001 270.60069 366.1534430000001 268.49469 365.9614430000001C259.51569 365.553443 255.01269 363.234443 252.68169 360.936443C252.32769 361.218443 251.95269 361.473443 251.59269 361.7494430000001C253.74669 369.375443 259.77069 384.144443 269.08869 385.416443C270.89769 385.662443 272.16369 387.327443 271.91769 389.136443C271.67169 390.9514430000001 269.96769 392.229443 268.19769 391.965443C255.33069 390.2164430000001 248.50269 373.776443 245.89569 365.694443C244.35969 366.651443 242.80569 367.5814430000001 241.19469 368.424443C243.05469 372.867443 245.14869 381.291443 239.62569 390.402443C238.68369 391.965443 236.64669 392.4514430000001 235.08369 391.518443C233.52069 390.5674430000001 233.02269 388.5334430000001 233.96469 386.976443C237.90669 380.4754430000001 236.50569 374.448443 235.21269 371.226443C226.77669 374.697443 217.56069 376.641443 207.88869 376.641443C168.14169 376.641443 135.81369 344.310443 135.81369 304.572443C135.81369 294.516443 137.88069 284.898443 141.62769 276.135443C134.63469 274.155443 125.73669 272.568443 122.57769 274.146443C119.74269 275.553443 117.96669 274.3654430000001 117.32469 273.783443C116.27769 272.826443 115.31469 270.972443 116.65869 267.531443C119.42469 260.427443 130.91469 247.185443 146.16669 247.185443L146.25669 247.185443L164.20269 247.251443C170.44869 242.517443 177.51369 238.731443 185.25069 236.190443C175.18569 226.197443 162.04269 205.041443 162.04269 186.405443C162.04269 179.850443 164.14269 122.346443 236.79369 122.346443C303.12669 122.346443 332.7816900000001 187.071443 333.07869 187.725443C333.53769 188.760443 333.44469 189.942443 332.83869 190.884443zM165.35769 304.386443C161.04069 304.386443 157.53969 300.885443 157.53969 296.568443C157.53969 292.251443 161.04069 288.753443 165.35769 288.753443C169.67469 288.753443 173.17569 292.254443 173.17569 296.568443C173.17269 300.885443 169.67469 304.386443 165.35769 304.386443zM286.36269 200.361443C286.32369 200.361443 283.65069 200.244443 279.5916900000001 200.244443C271.96269 200.244443 257.83569 200.676443 248.87769 203.610443C243.18669 205.470443 239.28369 207.984443 235.51269 210.417443C230.46669 213.672443 225.69369 216.753443 218.21469 216.993443L217.16769 217.005443C206.30169 217.005443 202.18269 211.320443 201.02469 209.214443C195.94869 203.775443 193.67469 190.635443 198.34269 178.983443C201.28269 171.657443 209.42169 159.360443 230.94969 159.360443C269.29269 159.360443 286.61169 186.528443 289.65969 196.050443C289.98969 197.082443 289.78869 198.207443 289.13769 199.068443C288.47469 199.929443 287.48469 200.463443 286.36269 200.361443zM230.95269 165.975443C214.20369 165.975443 207.30969 174.393443 204.48069 181.446443C200.59869 191.136443 202.80669 201.795443 206.03169 204.876443C206.33469 205.167443 206.61969 205.605443 206.79969 205.992443C206.87769 206.172443 208.87269 210.390443 217.16769 210.390443L218.00169 210.378443C223.65369 210.198443 227.30469 207.840443 231.92769 204.855443C235.86069 202.323443 240.31869 199.443443 246.82269 197.316443C256.15569 194.268443 269.7936900000001 193.629443 279.5916900000001 193.629443C280.23069 193.629443 280.83669 193.629443 281.4066900000001 193.635443C275.88969 183.399443 260.4066900000001 165.975443 230.95269 165.975443z"/>
    <glyph glyph-name="icon143" unicode="" horiz-adv-x="560" d=" M40 280C40 147.4516600406096 147.4516600406096 40 280 40C412.5483399593905 40 520 147.4516600406096 520 280C520 412.5483399593905 412.5483399593905 520 280 520C147.4516600406096 520 40 412.5483399593905 40 280z"/>
    <glyph glyph-name="popduck" unicode="" horiz-adv-x="560" d=" M317.761225 379.097389C313.512874 377.551116 311.330772 372.871583 312.876019 368.626052L346.415883 276.4760340000001C347.9611300000001 272.230503 352.642715 270.042763 356.8910650000001 271.589036C361.139416 273.135309 363.319466 277.82048 361.774219 282.066012L328.234355 374.216029C326.686289 378.460534 322.009575 380.643662 317.761225 379.097389 M324.028797 433.557364C290.101195 421.208726 272.603905 383.6906860000001 284.952542 349.763084L318.492406 257.613067C325.597874 238.090953 340.869737 230.971906 360.389033 238.076349L368.068201 240.871337L382.042118 202.478316C386.672728 189.755818 400.737477 183.190296 413.465614 187.822958C426.185293 192.452543 432.744918 206.524723 428.114307 219.247222L414.141416 257.637424L421.8262230000001 260.434465C441.342699 267.5378810000001 448.467383 282.811796 441.36294 302.331092L407.822051 394.483928C395.476233 428.412556 357.95358 445.904975 324.028797 433.557364L324.028797 433.557364L324.028797 433.557364zM412.759816 213.655451C414.299933 209.424015 412.108099 204.718592 407.879482 203.179502C403.648046 201.639385 398.938778 203.833012 397.398661 208.064448L383.424744 246.457469L398.78308 252.047447L412.756997 213.654425L412.759816 213.655451L412.759816 213.655451zM426.003578 296.7439330000001C430.026761 285.690329 427.291643 279.8198290000001 416.238038 275.796646L354.801874 253.4357110000001C343.751089 249.413554 337.876744 252.150466 333.853561 263.20407L300.313698 355.354087C291.064789 380.765255 304.207607 408.950119 329.621594 418.2000530000001C355.027123 427.44691 383.217625 414.306144 392.466534 388.8949770000001L426.006397 296.744959L426.003578 296.7439330000001L426.003578 296.7439330000001z M363.833414 395.8662950000001C359.593521 394.3231 357.405781 389.6415150000001 358.951028 385.395983L392.490891 293.245966C394.036138 289.000435 398.723362 286.814747 402.963255 288.357941C407.211605 289.904215 409.397293 294.591438 407.852046 298.836969L374.312183 390.986987C372.764117 395.231492 368.081765 397.412568 363.833414 395.8662950000001 M333.489 191.656C332.874 192.592 331.83 193.162 330.711 193.162L324.174 193.162C329.334 204.841 327.993 224.851 327.786 227.5C327.6960000000001 228.67 326.991 229.7080000000001 325.926 230.218C324.873 230.722 323.613 230.632 322.638 229.978C322.368 229.783 292.815 209.941 259.206 213.175C233.67 215.596 228.789 230.125 227.85 235.957C259.068 244.588 280.611 272.713 280.611 305.347C280.611 325.771 272.031 344.197 258.3330000000001 357.325C259.746 358.438 262.953 359.833 269.442 360.13C271.269 360.208 272.679 361.759 272.5950000000001 363.5800000000001C272.517 365.401 271.251 366.925 269.145 366.733C260.166 366.325 255.663 364.006 253.332 361.708C252.978 361.99 252.603 362.245 252.243 362.521C254.397 370.147 260.421 384.916 269.739 386.188C271.548 386.434 272.814 388.099 272.568 389.908C272.322 391.723 270.618 393.001 268.848 392.737C255.981 390.988 249.153 374.548 246.546 366.466C245.01 367.423 243.456 368.353 241.845 369.1960000000001C243.705 373.639 245.799 382.063 240.276 391.174C239.334 392.737 237.297 393.223 235.734 392.29C234.171 391.339 233.673 389.305 234.615 387.748C238.557 381.247 237.156 375.2200000000001 235.863 371.998C227.427 375.469 218.211 377.413 208.539 377.413C168.792 377.413 136.464 345.082 136.464 305.344C136.464 295.288 138.531 285.67 142.278 276.907C135.285 274.927 126.387 273.34 123.228 274.918C120.393 276.325 118.617 275.137 117.975 274.555C116.928 273.598 115.965 271.7440000000001 117.309 268.303C120.075 261.199 131.565 247.957 146.817 247.957L146.907 247.957L164.853 248.023C171.099 243.289 178.164 239.503 185.901 236.962C175.836 226.969 162.693 205.813 162.693 187.177C162.693 180.622 164.793 123.118 237.444 123.118C303.777 123.118 333.432 187.843 333.729 188.497C334.188 189.532 334.0950000000001 190.714 333.489 191.656L333.489 191.656L333.489 191.656zM237.447 129.742C172.599 129.742 169.311 177.595 169.311 187.186C169.311 205.912 185.7 229.831 194.238 235.477C194.547 235.633 194.877 235.876 195.123 236.122C195.975 236.968 196.299 238.216 195.975 239.371C195.645 240.526 194.715 241.411 193.545 241.6840000000001C163.83 248.668 143.076 274.84 143.076 305.35C143.076 341.44 172.44 370.804 208.536 370.804C244.626 370.804 273.99 341.44 273.99 305.35C273.99 274.816 253.215 248.635 223.476 241.678C222.003 241.33 220.995 240.019 220.971 238.501C220.965 238.255 220.992 238.018 221.043 237.784C221.289 233.365 224.253 209.854 258.579 206.59C286.464 203.947 311.277 215.77 321.45 221.524C321.6840000000001 210.751 320.448 196.552 315.81 192.289C314.808 191.365 314.472 189.925 314.9700000000001 188.653C315.468 187.381 316.689 186.547 318.051 186.547L325.278 186.547C317.313 172.213 289.326 129.742 237.447 129.742L237.447 129.742L237.447 129.742zM166.008 305.158C161.691 305.158 158.19 301.657 158.19 297.34C158.19 293.023 161.691 289.525 166.008 289.525C170.325 289.525 173.826 293.026 173.826 297.34C173.823 301.657 170.325 305.158 166.008 305.158L166.008 305.158L166.008 305.158zM146.886 254.581L146.82 254.581C136.593 254.581 128.565 262.702 125.103 267.79C131.7 267.181 140.532 269.461 145.233 270.877C148.476 264.913 152.511 259.426 157.281 254.62L146.886 254.581L146.886 254.581zM287.013 201.133C286.974 201.133 284.301 201.016 280.242 201.016C272.613 201.016 258.486 201.448 249.528 204.382C243.837 206.242 239.934 208.756 236.163 211.189C231.117 214.444 226.344 217.525 218.865 217.765L217.818 217.777C206.952 217.777 202.833 212.092 201.675 209.986C196.599 204.547 194.325 191.407 198.993 179.755C201.933 172.429 210.072 160.132 231.6 160.132C269.943 160.132 287.262 187.3 290.31 196.822C290.64 197.854 290.439 198.979 289.788 199.84C289.125 200.701 288.135 201.235 287.013 201.133L287.013 201.133L287.013 201.133zM231.603 166.747C214.854 166.747 207.96 175.165 205.131 182.218C201.249 191.908 203.457 202.567 206.682 205.648C206.985 205.939 207.27 206.377 207.45 206.764C207.528 206.944 209.523 211.162 217.818 211.162L218.652 211.15C224.304 210.97 227.955 208.612 232.578 205.627C236.511 203.095 240.969 200.215 247.473 198.088C256.806 195.04 270.444 194.401 280.242 194.401C280.881 194.401 281.487 194.401 282.057 194.407C276.54 184.171 261.057 166.747 231.603 166.747L231.603 166.747L231.603 166.747z"/>
  </font>
</defs>
</svg>
